<svg id="Capa_1" enable-background="new 0 0 512 512" height="512" viewBox="0 0 512 512" width="512" xmlns="http://www.w3.org/2000/svg" xmlns:xlink="http://www.w3.org/1999/xlink"><linearGradient id="SVGID_1_" gradientUnits="userSpaceOnUse" x1="256" x2="256" y1="511.099" y2="189.45"><stop offset="0" stop-color="#00b59c"/><stop offset="1" stop-color="#9cffac"/></linearGradient><linearGradient id="SVGID_2_" gradientUnits="userSpaceOnUse" x1="256" x2="256" y1="512" y2="0"><stop offset="0" stop-color="#c3ffe8"/><stop offset=".9973" stop-color="#f0fff4"/></linearGradient><g><g><g><path d="m391 240v-23.101c0-5.4-2.999-10.199-7.5-12.9-4.799-2.701-10.499-2.701-15 0-17.999 10.499-42.001 6.599-56.1-9.6-5.7-6.599-17.1-6.599-22.8 0-17.699 20.099-49.501 20.099-67.2 0-5.7-6.599-17.1-6.599-22.8 0-14.399 16.199-38.399 20.099-56.1 9.6-4.501-2.701-10.201-2.701-15 0-4.501 2.701-7.5 7.5-7.5 12.9v23.101l-30 32.747 30 42.253v62c0 69.3 52.5 126.599 120 134.099l15-35.4 15 35.4c67.5-7.5 120-64.799 120-134.099v-62l30-38.242z" fill="url(#SVGID_1_)"/></g></g><g><g><path d="m0 315c0 8.399 6.599 15 15 15h61c16.8 0 32.701-5.7 45-15v-75h-46c-41.4 0-75 33.6-75 75zm437-75h-46v75c12.299 9.3 28.2 15 45 15h61c8.401 0 15-6.601 15-15 0-41.4-33.6-75-75-75zm-241 60c-8.284 0-15 6.716-15 15s6.716 15 15 15 15-6.716 15-15-6.716-15-15-15zm120 0c-8.284 0-15 6.716-15 15s6.716 15 15 15 15-6.716 15-15-6.716-15-15-15zm-40.499 96.499-19.501 19.2-19.501-19.2c-5.7-5.999-15.298-5.999-20.999 0-6 5.7-6 15.3 0 21l25.499 25.8v67.8c4.799.601 9.901.901 15 .901s10.201-.3 15-.901v-67.8l25.499-25.8c6-5.7 6-15.3 0-21-5.699-5.999-15.297-5.999-20.997 0zm131.554-188.184c42.627-7.573 73.945-44.326 73.945-88.315s-31.318-80.742-73.975-88.315c-14.296-19.981-36.621-31.685-61.025-31.685-16.23 0-32.021 5.464-45 15.308-25.957-19.688-64.043-19.688-90 0-12.979-9.844-28.77-15.308-45-15.308-24.404 0-46.729 11.704-61.025 31.685-42.657 7.573-73.975 44.326-73.975 88.315s31.318 80.742 73.945 88.315c26.642 37.139 75.289 39.757 106.055 16.377 25.957 19.688 64.043 19.688 90 0 33.291 25.25 80.751 18.897 106.055-16.377z" fill="url(#SVGID_2_)"/></g></g></g></svg>