<svg id="Capa_1" enable-background="new 0 0 512.002 512.002" height="512" viewBox="0 0 512.002 512.002" width="512" xmlns="http://www.w3.org/2000/svg" xmlns:xlink="http://www.w3.org/1999/xlink"><linearGradient id="SVGID_1_" gradientUnits="userSpaceOnUse" x1="256.001" x2="256.001" y1="481.501" y2="31.501"><stop offset="0" stop-color="#addcff"/><stop offset=".5028" stop-color="#eaf6ff"/><stop offset="1" stop-color="#eaf6ff"/></linearGradient><linearGradient id="SVGID_2_" gradientUnits="userSpaceOnUse" x1="256" x2="256" y1="421.501" y2="180.886"><stop offset="0" stop-color="#5558ff"/><stop offset="1" stop-color="#00c0ff"/></linearGradient><g><g><g><path d="m484.9 256.501-108.9-90-30-30-90-105c-42.6 0-82.8 11.7-117.9 33.3l-85.455 18.106-6.345 92.294c-9.3 23.699-14.7 49.2-15.3 75.601-19.501 24.3-31 55.8-31 89.7 0 68.399 48.401 141 136 141h240c91.536 0 136.385-77.224 136-142-.178-30.023-9.904-59.378-27.1-83.001z" fill="url(#SVGID_1_)"/></g></g><g><g><path d="m75 30.501c-41.4 0-75 33.6-75 75 0 30.599 19.3 57.999 46.3 69.7 17.67-45.432 47.953-83.008 91.8-110.4-13.8-20.4-37.899-34.3-63.1-34.3zm437 75c0-41.353-33.633-75-75-75-25.286 0-49.176 13.535-63.232 34.303-34.312-21.142-74.668-33.303-117.768-33.303v105c0 66.299 53.699 120 120 120h108.9c-1.199-1.8-2.401-3.6-3.9-5.4-.729-26.484-5.965-51.762-14.936-75.127 23.698-10.782 45.936-38.147 45.936-70.473zm-166 106c-8.401 0-15-6.601-15-15 0-8.401 6.599-15 15-15s15 6.599 15 15c0 8.399-6.599 15-15 15zm-30 120h-30c-6.434 0-11.829-4.122-13.953-9.836l24.558-24.558c5.859-5.859 5.859-15.352 0-21.211s-15.352-5.859-21.211 0l-19.394 19.394-19.395-19.395c-5.859-5.859-15.352-5.859-21.211 0s-5.859 15.352 0 21.211l24.56 24.56c-2.122 5.713-7.52 9.835-13.955 9.835h-30c-8.291 0-15 6.709-15 15s6.709 15 15 15h15v45c0 8.291 6.709 15 15 15h60c8.291 0 15-6.709 15-15v-45h15c8.291 0 15-6.709 15-15s-6.708-15-14.999-15zm-150-150c-8.284 0-15 6.716-15 15s6.716 15 15 15 15-6.716 15-15-6.716-15-15-15z" fill="url(#SVGID_2_)"/></g></g></g></svg>