<svg id="Capa_1" enable-background="new 0 0 512 512" height="512" viewBox="0 0 512 512" width="512" xmlns="http://www.w3.org/2000/svg" xmlns:xlink="http://www.w3.org/1999/xlink"><linearGradient id="SVGID_1_" gradientUnits="userSpaceOnUse" x1="256" x2="256" y1="512" y2="0"><stop offset="0" stop-color="#fd3a84"/><stop offset="1" stop-color="#ffa68d"/></linearGradient><linearGradient id="SVGID_2_" gradientUnits="userSpaceOnUse" x1="256" x2="256" y1="435" y2="180"><stop offset="0" stop-color="#ffc2cc"/><stop offset="1" stop-color="#fff2f4"/></linearGradient><g><g><g><path d="m166 285c-16.816 0-30 13.184-30 30s13.184 30 30 30c0 16.816 13.184 30 30 30s30-13.184 30-30c0-33.091-26.924-60-60-60zm180 60c16.816 0 30-13.184 30-30s-13.184-30-30-30c-33.076 0-60 26.909-60 60 0 16.816 13.184 30 30 30s30-13.184 30-30zm45-345c-18.75 0-36.709 8.965-48.018 24.023l-16.816 22.471c-23.232-8.657-49.512-5.361-70.166 9.023-20.625-14.326-46.904-17.651-70.166-9.023l-16.846-22.5c-11.279-15.029-29.238-23.994-47.988-23.994-33.076 0-60 26.909-60 60 0 18.771 8.958 36.708 23.946 47.988 2.401 1.783 20.339 15.124 23.046 17.139-13.945 30.981-17.988 65.728-11.309 99.155l9.023 45.908c2.024 10.339 13.613 15.19 22.354 10.02 11.28-6.68 24.405-10.21 37.94-10.21h180c13.535 0 26.66 3.53 37.939 10.21 8.817 5.235 20.347.234 22.354-10.02l9.023-45.864c6.68-33.442 2.637-68.174-11.279-99.155 3.013-2.235 20.848-15.138 22.998-17.168 15-11.279 23.965-29.224 23.965-48.003 0-33.091-26.924-60-60-60zm-306.035 108.003c-.006-.005-.012-.01-.019-.015-.345-.257-.371-.275.019.015zm111.035 281.997h-30c-8.789 0-17.08-1.479-24.58-4.395-4.6-1.772-9.814-1.201-13.887 1.611-4.102 2.798-6.533 7.427-6.533 12.378v97.406c0 8.291 6.709 15 15 15h60c8.291 0 15-6.709 15-15v-92c0-8.291-6.709-15-15-15zm188.467-2.783c-4.072-2.813-9.287-3.384-13.887-1.611-7.5 2.915-15.791 4.394-24.58 4.394h-30c-8.291 0-15 6.709-15 15v92c0 8.291 6.709 15 15 15h60c8.291 0 15-6.709 15-15v-97.405c0-4.951-2.432-9.58-6.533-12.378z" fill="url(#SVGID_1_)"/></g></g><g><g><path d="m361 255h-210c-51.366 0-90 41.745-90 90 0 38.399 24 72.299 60 84.6 9.3 3.6 19.2 5.4 30 5.4h210c10.499 0 20.7-1.8 30-5.4 36-12.301 60-46.201 60-84.6 0-48.232-38.609-90-90-90zm-165 105c-8.401 0-15-6.601-15-15 0-8.401-6.599-15-15-15s-15-6.601-15-15c0-8.401 6.599-15 15-15 24.901 0 45 20.1 45 45 0 8.399-6.599 15-15 15zm150-30c-8.401 0-15 6.599-15 15 0 8.399-6.599 15-15 15s-15-6.601-15-15c0-24.9 20.099-45 45-45 8.401 0 15 6.599 15 15 0 8.399-6.599 15-15 15zm-180-120c8.284 0 15-6.716 15-15s-6.716-15-15-15-15 6.716-15 15 6.716 15 15 15zm180 0c8.284 0 15-6.716 15-15s-6.716-15-15-15-15 6.716-15 15 6.716 15 15 15z" fill="url(#SVGID_2_)"/></g></g></g></svg>