<svg id="Capa_1" enable-background="new 0 0 512 512" height="512" viewBox="0 0 512 512" width="512" xmlns="http://www.w3.org/2000/svg" xmlns:xlink="http://www.w3.org/1999/xlink"><linearGradient id="SVGID_1_" gradientUnits="userSpaceOnUse" x1="256" x2="256" y1="469.399" y2="75.099"><stop offset="0" stop-color="#c3ffe8"/><stop offset=".9973" stop-color="#f0fff4"/></linearGradient><linearGradient id="SVGID_2_" gradientUnits="userSpaceOnUse" x1="256" x2="256" y1="512" y2="240.941"><stop offset="0" stop-color="#00b59c"/><stop offset="1" stop-color="#9cffac"/></linearGradient><g><g><g><path d="m436.901 189.099-113.701-114-21.599 22.5c-29.401-8.699-61.8-8.699-91.201 0l-21.299-22.5-114.002 113.701 22.5 21.599c-4.499 14.7-6.599 29.7-6.599 45.601 0 33.6 10.201 66.299 29.399 94.2l82.5 119.198 53.101-2.398 53.101 2.399 82.5-119.499c19.198-27.601 29.399-60.3 29.399-93.9 0-15.901-2.1-31.201-6.599-45.601z" fill="url(#SVGID_1_)"/></g></g><g><g><path d="m210.399 97.599c-3.9-54-49.198-97.599-104.399-97.599-57.9 0-106 48.1-106 106 0 55.199 43.599 100.499 97.599 104.399 12.732-52.996 63.282-100.916 112.8-112.8zm195.601-97.599c-55.201 0-100.499 43.599-104.399 97.599 52.884 12.691 100.88 63.18 112.8 112.8 54-3.9 97.599-49.2 97.599-104.399 0-57.9-48.1-106-106-106zm-150 437c-23.101 0-43.2 13.2-53.101 32.399l16.201 23.101c8.4 12.3 22.2 19.5 36.9 19.5s28.5-7.2 36.899-19.2l16.201-23.401c-9.9-19.199-29.999-32.399-53.1-32.399zm-60-196c-8.284 0-15 6.716-15 15s6.716 15 15 15 15-6.716 15-15-6.716-15-15-15zm120 30c8.284 0 15-6.716 15-15s-6.716-15-15-15-15 6.716-15 15 6.716 15 15 15zm94.746 120.776-90-30c-7.852-2.607-16.348 1.626-18.984 9.478-2.607 7.866 1.641 16.362 9.492 18.97l90 30c7.91 2.637 16.365-1.674 18.984-9.478 2.608-7.866-1.64-16.362-9.492-18.97zm25.254-90.776h-90c-8.291 0-15 6.709-15 15s6.709 15 15 15h90c8.291 0 15-6.709 15-15s-6.709-15-15-15zm-225.762 70.254c-2.637-7.852-11.133-12.1-18.984-9.478l-90 30c-7.852 2.607-12.1 11.104-9.492 18.97 2.622 7.812 11.082 12.112 18.984 9.478l90-30c7.852-2.608 12.1-11.104 9.492-18.97zm-29.238-55.254c0-8.291-6.709-15-15-15h-90c-8.291 0-15 6.709-15 15s6.709 15 15 15h90c8.291 0 15-6.709 15-15z" fill="url(#SVGID_2_)"/></g></g></g></svg>