<svg id="Capa_1" enable-background="new 0 0 512 512" height="512" viewBox="0 0 512 512" width="512" xmlns="http://www.w3.org/2000/svg" xmlns:xlink="http://www.w3.org/1999/xlink"><linearGradient id="SVGID_1_" gradientUnits="userSpaceOnUse" x1="256" x2="256" y1="512" y2="0"><stop offset="0" stop-color="#fd5900"/><stop offset="1" stop-color="#ffde00"/></linearGradient><linearGradient id="SVGID_2_" gradientUnits="userSpaceOnUse" x1="256" x2="256" y1="450" y2="60"><stop offset="0" stop-color="#ffe59a"/><stop offset="1" stop-color="#ffffd5"/></linearGradient><g><g><g><path d="m326.225 0c-24.521 0-48.076 5.024-70.078 14.941-22.09-9.917-45.733-14.941-70.372-14.941-30.849 0-185.775 12.29-185.775 255 0 10.459.557 20.508 1.641 30.146.645 5.728 4.512 10.576 9.961 12.48 5.391 1.86 11.455.498 15.557-3.56l5.072-4.072c14.268 193.931 148.125 212.674 221.895 221.888.645.073 1.26.117 1.875.117s1.23-.044 1.875-.117c73.77-9.214 207.627-27.957 221.895-221.888l5.072 4.072c4.072 4.058 10.137 5.42 15.557 3.56 5.449-1.904 9.316-6.753 9.961-12.48 1.082-9.638 1.639-19.687 1.639-30.146 0-242.71-154.926-255-185.775-255z" fill="url(#SVGID_1_)"/></g></g><g><g><path d="m407.5 98.399c-36.299-44.099-105-50.4-151.5-13.5-44.925-36.757-112.808-33.277-151.5 13.5-19.801 24.3-27.9 56.1-21.601 87.301l24.001 120c5.4 26.999 21.299 50.7 44.099 66.299v3.001c0 41.4 33.6 75 75 75h60c41.4 0 75-33.6 75-75v-3.001c22.8-15.599 38.699-39.3 44.099-66.299l24.001-120c6.3-31.201-1.798-63.001-21.599-87.301zm-218.099 110.102-30-15c-7.5-3.9-10.501-12.902-6.901-20.102 3.9-7.5 12.9-10.499 20.099-6.899l30 15c7.5 3.9 10.501 12.9 6.901 20.1-3.324 6.646-11.306 10.668-20.099 6.901zm107.098 155.998c6 5.7 6 15.3 0 21-2.699 3.001-6.599 4.501-10.499 4.501s-7.8-1.5-10.499-4.501c-10.801-10.499-28.2-10.499-39.001 0-5.7 6-15.298 6-20.999 0-6-5.7-6-15.3 0-21 7.2-7.5 16.199-11.999 25.499-14.7v-28.5l-25.499-25.8c-6-5.7-6-15.3 0-21 5.7-5.999 15.298-5.999 20.999 0l19.501 19.2 19.501-19.2c5.7-5.999 15.298-5.999 20.999 0 6 5.7 6 15.3 0 21l-25.501 25.8v28.5c9.3 2.701 18.3 7.2 25.499 14.7zm56.1-170.998-30 15c-8.835 3.785-16.798-.301-20.099-6.901-3.6-7.2-.599-16.199 6.901-20.1l30-15c7.2-3.6 16.199-.601 20.099 6.899 3.6 7.2.599 16.201-6.901 20.102z" fill="url(#SVGID_2_)"/></g></g></g></svg>