<svg id="Capa_1" enable-background="new 0 0 512 512" height="512" viewBox="0 0 512 512" width="512" xmlns="http://www.w3.org/2000/svg" xmlns:xlink="http://www.w3.org/1999/xlink"><linearGradient id="SVGID_1_" gradientUnits="userSpaceOnUse" x1="256" x2="256" y1="421.5" y2="15.5"><stop offset="0" stop-color="#00b59c"/><stop offset="1" stop-color="#9cffac"/></linearGradient><linearGradient id="SVGID_2_" gradientUnits="userSpaceOnUse" x1="256" x2="256" y1="496.5" y2="17.362"><stop offset="0" stop-color="#c3ffe8"/><stop offset=".9973" stop-color="#f0fff4"/></linearGradient><g><g><g><path d="m419.711 173.429-40.4-34.351c-21.961-18.309-52.738-23.071-79.746-10.518-26.866 12.32-43.565 38.35-43.565 67.94 0 12.51 2.256 19.424 10.605 45.015l8.438 26.807c4.309 13.329 11.408 25.105 20.499 34.778-10.574-3.591-22.756-1.052-30.547 7.204l-8.995 8.847-8.643-8.481c-8.243-8.726-20.473-11.026-30.696-7.72 6.633-7.13 12.166-15.396 16.282-24.58l4.746-.278v-11.968l7.676-24.478c8.379-25.722 10.635-32.636 10.635-45.146 0-29.59-16.699-55.62-43.564-67.939-27.287-12.54-57.726-7.837-79.893 10.635.037-.031.062-.052.086-.073-1.908 1.607-37.267 31.378-40.135 33.793-29.15 25.576-39.023 63.735-25.752 99.58s46.348 59.004 84.258 59.004c17.781 0 34.568-5.183 48.728-14.344-6.381 11.478-4.478 26.33 5.178 35.452l10.664 10.679c-11.513 4.16-19.57 15.073-19.57 28.213 0 16.816 13.184 30 30 30 10.43 0 20.771-2.842 30-8.13 9.229 5.288 19.57 8.13 30 8.13 16.816 0 30-13.184 30-30 0-13.008-7.881-23.848-19.365-28.418l10.166-10.195c10.277-9.711 11.643-24.807 5.561-35.756 14.184 9.17 30.937 14.369 48.638 14.369 37.91 0 70.986-23.159 84.258-59.004 13.301-35.947 3.193-74.238-25.547-99.067zm-341.104-14.575c18.838-28.55 40.488-52.251 64.365-70.415 4.775-3.647 6.943-9.785 5.449-15.615-8.349-33.165-39.144-57.324-73.421-57.324-41.367 0-75 33.647-75 75 0 36.709 27.338 68.793 63.607 74.887 6.306.978 11.94-1.862 15-6.533zm358.393-143.354c-34.277 0-65.072 24.159-73.422 57.323-1.494 5.83.674 11.968 5.449 15.615 23.877 18.164 45.527 41.865 64.365 70.415 3.069 4.684 8.715 7.509 15 6.533 36.27-6.093 63.608-38.177 63.608-74.886 0-41.353-33.633-75-75-75z" fill="url(#SVGID_1_)"/></g></g><g><g><path d="m458.5 142.2c-20.7-31.201-44.7-57.301-71.1-77.701-81.601-62.999-181.199-62.699-262.5 0-26.7 20.4-50.7 46.5-71.4 77.701-33.3 50.7-53.5 108.9-53.5 159.3 0 116.7 103.599 195 256 195s256-78.3 256-195c0-50.4-20.2-108.6-53.5-159.3zm-307.5 174.3c-31.5 0-59.099-19.2-70.201-49.2-11.1-30-2.699-61.8 21.601-83.101 5.149-3.429 3.388-2.705 39.901-33.6 17.999-15 42.299-18.3 63.9-8.399 21.599 9.899 34.799 30.599 34.799 54.3 0 11.185-1.259 13.844-17.999 66.299-6.813 27.252-35.867 53.701-72.001 53.701zm135 90c-11.4 0-21.899-4.501-30-11.4-8.101 6.899-18.6 11.4-30 11.4-8.401 0-15-6.601-15-15 0-8.401 6.599-15 15-15 6.301 0 11.7-4.2 14.099-9.9l-24.598-24.6c-6-5.7-6-15.3 0-21 5.7-5.999 15.298-5.999 20.999 0l19.501 19.2 19.501-19.2c5.7-5.999 15.298-5.999 20.999 0 6 5.7 6 15.3 0 21l-24.598 24.6c2.399 5.7 7.798 9.9 14.099 9.9 8.401 0 15 6.599 15 15-.002 8.399-6.601 15-15.002 15zm145.201-139.2c-11.102 30-38.701 49.2-70.201 49.2-32.701 0-61.5-21.301-71.7-52.8-16.392-51.328-18.3-55.696-18.3-67.2 0-23.701 13.2-44.401 34.799-54.3 21.301-9.901 45.901-6.601 63.9 8.399 3.292 2.781 36.013 30.013 39.3 33.3 24.901 21.601 33.302 53.401 22.202 83.401zm-85.201-70.8c-8.284 0-15 6.716-15 15s6.716 15 15 15 15-6.716 15-15-6.716-15-15-15zm-180 0c-8.284 0-15 6.716-15 15s6.716 15 15 15 15-6.716 15-15-6.716-15-15-15z" fill="url(#SVGID_2_)"/></g></g></g></svg>