<svg id="Capa_1" enable-background="new 0 0 512 512" height="512" viewBox="0 0 512 512" width="512" xmlns="http://www.w3.org/2000/svg" xmlns:xlink="http://www.w3.org/1999/xlink"><linearGradient id="SVGID_1_" gradientUnits="userSpaceOnUse" x1="256.15" x2="256.15" y1="512" y2="60"><stop offset="0" stop-color="#ffc2cc"/><stop offset="1" stop-color="#fff2f4"/></linearGradient><linearGradient id="SVGID_2_" gradientUnits="userSpaceOnUse" x1="256" x2="256" y1="362" y2="0"><stop offset="0" stop-color="#fd3a84"/><stop offset="1" stop-color="#ffa68d"/></linearGradient><g><g><g><path d="m256 152c8.291 0 15-6.709 15-15v-62c0-8.291-6.709-15-15-15s-15 6.709-15 15v62c0 8.291 6.709 15 15 15zm-74.062 11.265c4.976 6.626 14.367 7.982 21.006 3.003 6.621-4.966 7.969-14.37 3.018-20.991l-39.962-53.277c-4.98-6.665-14.385-7.954-21.006-3.003-6.621 4.966-7.969 14.37-3.018 20.991zm127.119 3.003c6.629 4.972 16.024 3.632 21.006-3.003l39.961-53.276c4.951-6.621 3.604-16.025-3.018-20.991-6.592-4.923-15.996-3.648-21.006 3.002l-39.961 53.276c-4.951 6.621-3.603 16.026 3.018 20.992zm8.424 90.696c16.103-.749 28.519-13.645 28.519-29.964 0-16.816-13.184-30-30-30-16.574 0-29.609 12.809-29.982 29.277l-30.018-29.277-30.016 29.348c-.337-16.503-13.387-29.348-29.984-29.348-16.816 0-30 13.184-30 30 0 16.369 12.493 29.291 28.667 29.967l-59.866 58.533c1.748 10.543 79.148 167.44 80.7 170.7 7.5 15.9 23.098 25.8 40.499 25.8s32.999-9.9 40.499-25.8c1.475-3.093 80.138-167.677 81-170.7z" fill="url(#SVGID_1_)"/></g></g><g><g><path d="m256 122c-74.399 0-135 60.599-135 135 0 21 4.501 40.8 13.801 58.5 95.998-8.1 121.199-58.5 121.199-58.5s25.201 50.4 121.5 58.5c9-18.001 13.5-37.8 13.5-58.5 0-74.401-60.601-135-135-135zm-60 120c-8.401 0-15-6.601-15-15 0-8.401 6.599-15 15-15s15 6.599 15 15c0 8.399-6.599 15-15 15zm120 0c-8.401 0-15-6.601-15-15 0-8.401 6.599-15 15-15s15 6.599 15 15c0 8.399-6.599 15-15 15zm-60-152c24.814 0 45-20.186 45-45s-20.186-45-45-45-45 20.186-45 45 20.186 45 45 45zm-30 242c-8.284 0-15 6.716-15 15s6.716 15 15 15 15-6.716 15-15-6.716-15-15-15zm60 0c-8.284 0-15 6.716-15 15s6.716 15 15 15 15-6.716 15-15-6.716-15-15-15zm-105-255c0-24.814-20.186-45-45-45s-45 20.186-45 45 20.186 45 45 45 45-20.186 45-45zm195-45c-24.814 0-45 20.186-45 45s20.186 45 45 45 45-20.186 45-45-20.186-45-45-45z" fill="url(#SVGID_2_)"/></g></g></g></svg>