<svg id="Capa_1" enable-background="new 0 0 512 512" height="512" viewBox="0 0 512 512" width="512" xmlns="http://www.w3.org/2000/svg" xmlns:xlink="http://www.w3.org/1999/xlink"><linearGradient id="SVGID_1_" gradientUnits="userSpaceOnUse" x1="256" x2="256" y1="511.986" y2="32.015"><stop offset="0" stop-color="#fd5900"/><stop offset="1" stop-color="#ffde00"/></linearGradient><linearGradient id="SVGID_2_" gradientUnits="userSpaceOnUse" x1="256" x2="256" y1="422.015" y2=".015"><stop offset="0" stop-color="#ffe59a"/><stop offset="1" stop-color="#ffffd5"/></linearGradient><g id="_Owl_2_"><g><g><path d="m256 32.015c-124.072 0-225 100.928-225 225v180c0 8.291 6.709 15 15 15 140.83 0 198.896 55.107 199.395 55.605 2.9 2.915 6.738 4.365 10.576 4.365 3.809 0 7.646-1.436 10.576-4.307.557-.557 58.623-55.664 199.453-55.664 8.291 0 15-6.709 15-15v-180c0-124.071-100.928-224.999-225-224.999z" fill="url(#SVGID_1_)"/></g></g><g><g><path d="m497.631.106c-8.525-.967-15.293 6.079-15.645 14.341-.996 23.306-11.504 46.011-27.236 63.926-19.98 22.69-48.691 13.642-78.75 13.642h-60c-24.494 0-46.291 11.667-60 29.958-13.709-18.291-35.506-29.958-60-29.958h-60c-30.059 0-58.77 9.048-78.721-13.627-15.762-17.93-26.269-40.635-27.266-63.94-.351-8.263-7.558-15.323-15.644-14.342-8.291.352-14.707 7.354-14.355 15.63 1.318 30.117 14.463 59.399 34.736 82.471 25.664 29.15 62.578 23.808 101.25 23.808h60c22.852 0 42.51 17.783 44.795 40.488.798 8.113 7.938 13.506 15.527 13.506 8.794-.727 14.204-6.609 14.883-13.506 2.285-22.705 21.943-40.488 44.795-40.488h60c38.672 0 75.586 5.342 101.279-23.823 20.244-23.057 33.389-52.339 34.707-82.456.352-8.276-6.064-15.278-14.355-15.63zm-174.922 333.491-60-30c-4.219-2.109-9.199-2.109-13.418 0l-60 30c-4.307 2.153-7.324 6.255-8.086 11.016-.791 4.761.791 9.595 4.189 13.008l60 60c2.93 2.93 6.768 4.395 10.605 4.395 3.838 0 7.676-1.465 10.605-4.395l60-60c3.398-3.413 4.98-8.247 4.189-13.008-.76-4.761-3.777-8.863-8.084-11.016zm-156.709-121.582c-8.401 0-15 6.599-15 15 0 8.399 6.599 15 15 15s15-6.601 15-15c0-8.401-6.599-15-15-15zm75 15c0-41.4-33.6-75-75-75s-75 33.6-75 75 33.6 75 75 75 75-33.6 75-75zm-75 45c-24.813 0-45-20.187-45-45s20.187-45 45-45 45 20.187 45 45-20.187 45-45 45zm180-60c-8.401 0-15 6.599-15 15 0 8.399 6.599 15 15 15s15-6.601 15-15c0-8.401-6.599-15-15-15zm0-60c-41.4 0-75 33.6-75 75s33.6 75 75 75 75-33.6 75-75-33.6-75-75-75zm0 120c-24.813 0-45-20.187-45-45s20.187-45 45-45 45 20.187 45 45-20.187 45-45 45z" fill="url(#SVGID_2_)"/></g></g></g></svg>