<svg id="Capa_1" enable-background="new 0 0 512 512" height="512" viewBox="0 0 512 512" width="512" xmlns="http://www.w3.org/2000/svg" xmlns:xlink="http://www.w3.org/1999/xlink"><linearGradient id="SVGID_1_" gradientUnits="userSpaceOnUse" x1="256" x2="256" y1="512" y2="63.608"><stop offset="0" stop-color="#fd3a84"/><stop offset="1" stop-color="#ffa68d"/></linearGradient><linearGradient id="SVGID_2_" gradientUnits="userSpaceOnUse" x1="256" x2="256" y1="420" y2="0"><stop offset="0" stop-color="#ffc2cc"/><stop offset="1" stop-color="#fff2f4"/></linearGradient><g><g><g><path d="m450.59 431.543-63.311-267.568c-11.396-48.633-49.951-87.847-98.232-99.917-4.863-1.23-10.078.103-13.799 3.501-3.691 3.413-5.449 8.467-4.629 13.447 2.295 14.841-3.602 61.727-13.77 69.141-12.468-5.667-17.054-52.534-15.615-70.034.41-4.819-1.553-9.536-5.244-12.656-3.633-3.135-8.613-4.292-13.33-3.105-48.896 12.231-86.426 50.405-97.939 99.595l-63.311 267.596c-1.055 4.468-.029 9.17 2.813 12.759 2.871 3.603 7.177 5.698 11.777 5.698h85.459l86.221 59.48c2.52 1.685 5.42 2.52 8.32 2.52s5.801-.835 8.32-2.52l86.221-59.48h85.459c4.6 0 8.906-2.095 11.777-5.698 2.842-3.589 3.868-8.291 2.813-12.759z" fill="url(#SVGID_1_)"/></g></g><g><g><path d="m196 210c8.284 0 15-6.716 15-15 0-8.286-6.716-15-15-15s-15 6.714-15 15c0 8.284 6.716 15 15 15zm120 0c8.284 0 15-6.716 15-15 0-8.286-6.716-15-15-15s-15 6.714-15 15c0 8.284 6.716 15 15 15zm6.709 31.582-60-30c-4.219-2.109-9.199-2.109-13.418 0l-60 30c-4.307 2.153-7.324 6.255-8.086 11.016-.791 4.761.791 9.595 4.189 13.008l51.33 51.33c-10.913 16.898-25.724 42.639-25.724 58.064 0 24.814 20.186 45 45 45s45-20.186 45-45c0-15.425-14.81-41.167-25.723-58.066l51.328-51.328c3.398-3.413 4.98-8.247 4.189-13.008-.761-4.761-3.778-8.863-8.085-11.016zm-66.709-61.582c24.853 0 45-40.294 45-90s-20.147-90-45-90-45 40.294-45 90 20.147 90 45 90z" fill="url(#SVGID_2_)"/></g></g></g></svg>