<svg id="Capa_1" enable-background="new 0 0 512 512" height="512" viewBox="0 0 512 512" width="512" xmlns="http://www.w3.org/2000/svg" xmlns:xlink="http://www.w3.org/1999/xlink"><linearGradient id="SVGID_1_" gradientUnits="userSpaceOnUse" x1="256" x2="256" y1="511.999" y2="0"><stop offset="0" stop-color="#5558ff"/><stop offset="1" stop-color="#00c0ff"/></linearGradient><linearGradient id="SVGID_2_" gradientUnits="userSpaceOnUse" x1="256" x2="256" y1="512" y2="120"><stop offset="0" stop-color="#addcff"/><stop offset=".5028" stop-color="#eaf6ff"/><stop offset="1" stop-color="#eaf6ff"/></linearGradient><g><g><g><path d="m465.707 342.055c-7.559-37.822-14.707-73.535-14.707-147.056 0-109.109-89.249-197.013-198.788-194.964-106.887 2-190.628 94.256-191.23 201.16-.391 69.363-7.347 104.116-14.69 140.86-7.526 37.574-15.286 78.436-15.292 154.859-.001 8.241 6.759 15.085 15 15.085h75c16.568 0 30-13.432 30-30h210c0 16.568 13.432 30 30 30h75c8.241 0 15-6.844 15-15.085-.006-76.423-7.767-117.285-15.293-154.859z" fill="url(#SVGID_1_)"/></g></g><g><g><path d="m369.1 142.199c-14.101-14.399-33.001-22.2-53.101-22.2-17.1 0-32.4 5.7-45 15.3v83.399l25.499 25.8c4.801 4.5 5.7 11.4 3.001 17.1l-30 60c-2.701 5.101-7.8 8.401-13.5 8.401s-10.8-3.3-13.5-8.401l-30-60c-2.699-5.7-1.8-12.6 3.001-17.1l25.499-25.8v-83.699c-13.417-10.298-29.756-15.401-46.989-14.975-41.362 1.023-73.011 37.917-73.011 79.291v312.684h270v-317c.001-20.399-7.8-38.999-21.899-52.8zm-173.1 67.8c-8.401 0-15-6.601-15-15 0-8.401 6.599-15 15-15s15 6.599 15 15c0 8.399-6.599 15-15 15zm120 0c-8.401 0-15-6.601-15-15 0-8.401 6.599-15 15-15s15 6.599 15 15c0 8.399-6.599 15-15 15z" fill="url(#SVGID_2_)"/></g></g></g></svg>