<svg id="Capa_1" enable-background="new 0 0 512 512" height="512" viewBox="0 0 512 512" width="512" xmlns="http://www.w3.org/2000/svg" xmlns:xlink="http://www.w3.org/1999/xlink"><linearGradient id="SVGID_1_" gradientUnits="userSpaceOnUse" x1="256" x2="256" y1="512" y2="6.017"><stop offset="0" stop-color="#a93aff"/><stop offset="1" stop-color="#ff81ff"/></linearGradient><linearGradient id="SVGID_2_" gradientUnits="userSpaceOnUse" x1="256.003" x2="256.003" y1="390" y2="0"><stop offset="0" stop-color="#ffbef9"/><stop offset="1" stop-color="#fff1ff"/></linearGradient><g><g><g><path d="m196.003 285c-16.816 0-30 13.184-30 30s13.184 30 30 30 30-13.184 30-30-13.184-30-30-30zm120 0c-16.816 0-30 13.184-30 30s13.184 30 30 30 30-13.184 30-30-13.184-30-30-30zm-120 75c-8.291 0-15 6.709-15 15v122c0 8.291 6.709 15 15 15s15-6.709 15-15v-122c0-8.291-6.709-15-15-15zm60 0c-8.291 0-15 6.709-15 15v122c0 8.291 6.709 15 15 15s15-6.709 15-15v-122c0-8.291-6.709-15-15-15zm60 0c-8.291 0-15 6.709-15 15v122c0 8.291 6.709 15 15 15s15-6.709 15-15v-122c0-8.291-6.709-15-15-15zm-180 15c-8.291 0-15 6.709-15 15v47c0 24.814-20.186 45-45 45s-46-20.186-46-45v-30c0-8.291-6.709-15-15-15s-15 6.709-15 15v30c0 41.353 34.633 75 76 75s75-33.647 75-75v-47c0-8.291-6.709-15-15-15zm360.994 17c-8.291 0-15 6.709-15 15v30c0 24.814-21.18 45-45.994 45s-45-20.186-45-45v-47c0-8.291-6.709-15-15-15s-15 6.709-15 15v47c0 41.353 33.633 75 75 75s75.994-33.647 75.994-75v-30c0-8.291-6.709-15-15-15zm-247.937-380.442c-4.688-5.713-12.715-7.192-19.102-3.574l-207.338 117.861c-13.945 7.91-22.617 22.91-22.617 39.155 0 15.82 8.379 30.557 21.592 38.306l106.586 64.497c4.734 2.886 10.547 2.877 15.146.278 4.746-2.651 7.676-7.661 7.676-13.081 0-73.784 26.982-144.712 76.025-199.746l21.592-24.287c4.863-5.479 5.069-13.711.44-19.409zm119.619 256.523c4.602 2.6 10.415 2.607 15.146-.278l106.346-64.351c13.447-7.896 21.826-22.632 21.826-38.452 0-16.245-8.672-31.245-22.559-39.126l-207.39-117.891c-6.416-3.618-14.443-2.139-19.102 3.574-4.629 5.698-4.424 13.931.439 19.409l21.621 24.302c49.014 55.02 75.996 125.947 75.996 199.731.001 5.421 2.931 10.431 7.677 13.082z" fill="url(#SVGID_1_)"/></g></g><g><g><path d="m307.304 35.4c-24.293-27.06-21.92-25.33-25.201-27.301l-3.9-2.399c-14.399-7.5-29.7-7.8-44.7.3l-3.6 2.098c-3.27 1.964-.82.144-25.201 27.301-54 60.3-83.699 138.3-83.699 219.6v135h270v-134.999c0-81.301-29.7-159.3-83.699-219.6zm-111.301 294.6c-8.401 0-15-6.601-15-15 0-8.401 6.599-15 15-15s15 6.599 15 15c0 8.399-6.599 15-15 15zm120 0c-8.401 0-15-6.601-15-15 0-8.401 6.599-15 15-15s15 6.599 15 15c0 8.399-6.599 15-15 15z" fill="url(#SVGID_2_)"/></g></g></g></svg>