<svg id="Capa_1" enable-background="new 0 0 512 512" height="512" viewBox="0 0 512 512" width="512" xmlns="http://www.w3.org/2000/svg" xmlns:xlink="http://www.w3.org/1999/xlink"><linearGradient id="SVGID_1_" gradientUnits="userSpaceOnUse" x1="256" x2="256" y1="512" y2="0"><stop offset="0" stop-color="#00b59c"/><stop offset="1" stop-color="#9cffac"/></linearGradient><linearGradient id="SVGID_2_" gradientUnits="userSpaceOnUse" x1="256" x2="256" y1="450" y2="120"><stop offset="0" stop-color="#c3ffe8"/><stop offset=".9973" stop-color="#f0fff4"/></linearGradient><g><g><g><path d="m451 240c0-13.066-4.131-25.503-11.953-35.962l-135.029-181.139c-22.91-30.527-73.096-30.542-96.064.015l-135 181.124c-7.823 10.459-11.954 22.896-11.954 35.962 0 22.104 11.953 41.821 30.439 52.251-19.951 60.308-30.439 132.049-30.439 204.749 0 8.291 6.709 15 15 15h360c8.291 0 15-6.709 15-15 0-72.7-10.488-144.441-30.439-204.749 18.486-10.43 30.439-30.147 30.439-52.251z" fill="url(#SVGID_1_)"/></g></g><g><g><path d="m226 150c8.284 0 15-6.716 15-15 0-8.286-6.716-15-15-15s-15 6.714-15 15c0 8.284 6.716 15 15 15zm60 0c8.284 0 15-6.716 15-15 0-8.286-6.716-15-15-15s-15 6.714-15 15c0 8.284 6.716 15 15 15zm15 70.199v34.801c0 8.399-6.599 15-15 15s-15-6.601-15-15v-43.801c-5.099-.899-9.901-1.199-15-1.199s-10.201.3-15 1.199v43.801c0 8.399-6.599 15-15 15s-15-6.601-15-15v-34.501c-35.4 16.5-60 52.8-60 94.501v120c0 8.399 6.599 15 15 15s15-6.601 15-15v-30c0-41.4 33.6-75 75-75 20.099 0 38.699 7.8 53.101 21.899 14.099 14.4 21.899 33 21.899 53.101v30c0 8.399 6.599 15 15 15s15-6.601 15-15v-120c0-43.057-25.865-78.677-60-94.801z" fill="url(#SVGID_2_)"/></g></g></g></svg>