<svg id="Capa_1" enable-background="new 0 0 512 512" height="512" viewBox="0 0 512 512" width="512" xmlns="http://www.w3.org/2000/svg" xmlns:xlink="http://www.w3.org/1999/xlink"><linearGradient id="SVGID_1_" gradientUnits="userSpaceOnUse" x1="256" x2="256" y1="447.972" y2="0"><stop offset="0" stop-color="#00b59c"/><stop offset="1" stop-color="#9cffac"/></linearGradient><linearGradient id="SVGID_2_" gradientUnits="userSpaceOnUse" x1="256" x2="256" y1="512" y2="152"><stop offset="0" stop-color="#c3ffe8"/><stop offset=".9973" stop-color="#f0fff4"/></linearGradient><g><g><g><path d="m166 227c0-16.816-13.184-30-30-30s-30 13.184-30 30 13.184 30 30 30 30-13.184 30-30zm210-30c-16.816 0-30 13.184-30 30s13.184 30 30 30 30-13.184 30-30-13.184-30-30-30zm60 15c-8.291 0-15 6.709-15 15 0 24.814-20.186 45-45 45s-45-20.186-45-45 20.186-45 45-45c6.094 0 11.836 1.084 17.051 3.237l.293.117c7.559 3.105 16.406-.425 19.6-8.086 3.164-7.646-.439-16.421-8.057-19.614-.117-.044-77.959-32.358-77.959-32.358l-57.51-117.671c-5.098-10.166-21.738-10.166-26.836 0l-57.51 117.671s-77.842 32.314-77.959 32.358c-7.617 3.193-11.221 11.968-8.057 19.614 3.193 7.661 12.041 11.221 19.6 8.086l.293-.117c5.215-2.153 10.957-3.237 17.051-3.237 24.814 0 45 20.186 45 45s-20.186 45-45 45-45-20.186-45-45c0-8.291-6.709-15-15-15s-15 6.709-15 15v210l25.225 10.972 169.775-55.972 169.775 55.972 25.225-10.972v-210c0-8.291-6.709-15-15-15z" fill="url(#SVGID_1_)"/></g></g><g><g><path d="m376 302c41.4 0 75-33.6 75-75s-33.6-75-75-75-75 33.6-75 75 33.6 75 75 75zm0-90c8.401 0 15 6.599 15 15 0 8.399-6.599 15-15 15s-15-6.601-15-15c0-8.401 6.599-15 15-15zm-240 90c41.4 0 75-33.6 75-75s-33.6-75-75-75-75 33.6-75 75 33.6 75 75 75zm0-90c8.401 0 15 6.599 15 15 0 8.399-6.599 15-15 15s-15-6.601-15-15c0-8.401 6.599-15 15-15zm120 150c-120.645 0-187.471 61.45-190.254 64.072-3.047 2.827-4.746 6.782-4.746 10.928s1.699 8.101 4.746 10.928c2.783 2.622 69.609 64.072 190.254 64.072s187.471-61.45 190.254-64.072c3.047-2.827 4.746-6.782 4.746-10.928s-1.699-8.101-4.746-10.928c-2.783-2.622-69.609-64.072-190.254-64.072zm-30-30c8.284 0 15-6.716 15-15s-6.716-15-15-15-15 6.716-15 15 6.716 15 15 15zm60 0c8.284 0 15-6.716 15-15s-6.716-15-15-15-15 6.716-15 15 6.716 15 15 15z" fill="url(#SVGID_2_)"/></g></g></g></svg>