<svg id="Capa_1" enable-background="new 0 0 512 512" height="512" viewBox="0 0 512 512" width="512" xmlns="http://www.w3.org/2000/svg" xmlns:xlink="http://www.w3.org/1999/xlink"><linearGradient id="SVGID_1_" gradientUnits="userSpaceOnUse" x1="256" x2="256" y1="503.899" y2="60"><stop offset="0" stop-color="#fd5900"/><stop offset="1" stop-color="#ffde00"/></linearGradient><linearGradient id="SVGID_2_" gradientUnits="userSpaceOnUse" x1="256" x2="256" y1="512" y2="180.706"><stop offset="0" stop-color="#ffe59a"/><stop offset="1" stop-color="#ffffd5"/></linearGradient><g><g><g><path d="m420.7 135.3-.899-44.101-58.801-16.199c-12.299-9.3-27.9-15-45-15h-120c-17.1 0-32.701 5.7-45 15l-58.801 16.199-.899 44.101c-18.299 13.2-30.3 35.1-30.3 59.7 0 23.699 11.4 45.899 30 59.7v30.3c0 44.7 28.2 84.3 69.901 99 4.799 1.8 9.899.899 13.799-1.8 3.9-3 6.301-7.5 6.301-12.301v-24.899c0-41.4 33.6-75 75-75s75 33.6 75 75v24.898c0 4.801 2.401 9.302 6.301 12.301 4.079 2.72 8.766 3.479 13.799 1.8 41.699-14.699 69.899-54.299 69.899-98.999v-30.3c18.6-13.801 30-36 30-59.7 0-24.6-12.001-46.5-30.3-59.7zm-179.7 368.599c5.7-3.3 10.8-7.5 15-12.299 4.2 4.799 9.3 9 15 12.299l55.499-169.4h-140.998z" fill="url(#SVGID_1_)"/></g></g><g><g><path d="m151 15c0-8.401-6.599-15-15-15-41.4 0-75 33.6-75 75 0 24.6 12.001 46.5 30.3 60.3 9-7.202 19.499-12.001 30.899-14.101 3.6-18.599 14.101-34.799 28.801-46.199zm225-15c-8.401 0-15 6.599-15 15v60c14.7 11.4 25.201 27.6 28.801 46.199 11.4 2.1 21.899 6.899 30.899 14.101 18.299-13.8 30.3-35.7 30.3-60.3 0-41.4-33.6-75-75-75zm-120 240c-57.9 0-105 47.1-105 105v107c0 32.999 27.001 60 60 60 11.1 0 21.301-3.001 30-8.101v-92.601l-25.499-25.8c-6-5.7-6-15.3 0-21 5.7-5.999 15.298-5.999 20.999 0l19.501 19.2 19.501-19.2c5.7-5.999 15.298-5.999 20.999 0 6 5.7 6 15.3 0 21l-25.501 25.801v92.601c8.699 5.1 18.9 8.101 30 8.101 32.999 0 60-27.001 60-60v-107.001c0-57.9-47.1-105-105-105zm-90-30c8.284 0 15-6.716 15-15s-6.716-15-15-15-15 6.716-15 15 6.716 15 15 15zm180-30c-8.284 0-15 6.716-15 15s6.716 15 15 15 15-6.716 15-15-6.716-15-15-15z" fill="url(#SVGID_2_)"/></g></g></g></svg>