<svg id="Capa_1" enable-background="new 0 0 512 512" height="512" viewBox="0 0 512 512" width="512" xmlns="http://www.w3.org/2000/svg" xmlns:xlink="http://www.w3.org/1999/xlink"><linearGradient id="SVGID_1_" gradientUnits="userSpaceOnUse" x1="256" x2="256" y1="496" y2="16"><stop offset="0" stop-color="#fd3a84"/><stop offset="1" stop-color="#ffa68d"/></linearGradient><linearGradient id="SVGID_2_" gradientUnits="userSpaceOnUse" x1="256" x2="256" y1="406" y2="256"><stop offset="0" stop-color="#ffc2cc"/><stop offset="1" stop-color="#fff2f4"/></linearGradient><g><g><g><path d="m503.709 197.582-34.164-16.582 34.164-16.582c5.068-2.549 8.291-7.734 8.291-13.418 0-74.443-61.557-135-136-135-8.291 0-15 6.709-15 15v117.48c-18.809-8.218-39.141-12.48-60-12.48h-90c-20.859 0-41.191 4.263-60 12.48v-117.48c0-8.291-6.709-15-15-15-74.443 0-136 60.557-136 135 0 5.684 3.223 10.869 8.291 13.418l34.164 16.582-34.164 16.582c-5.068 2.549-8.291 7.734-8.291 13.418 0 36.035 26.547 66.211 61 73.389 0 53.541 25.997 98.341 64.951 125.186l121.523 83.774c2.578 1.772 5.537 2.651 8.525 2.651s5.947-.879 8.525-2.651l121.523-83.774c39.503-27.221 64.953-72.283 64.953-125.216 34.248-7.207 61-37.368 61-73.359 0-5.684-3.223-10.869-8.291-13.418z" fill="url(#SVGID_1_)"/></g></g><g><g><path d="m166 256c-8.284 0-15 6.714-15 15 0 8.284 6.716 15 15 15s15-6.716 15-15c0-8.286-6.716-15-15-15zm180 0c-8.284 0-15 6.714-15 15 0 8.284 6.716 15 15 15s15-6.716 15-15c0-8.286-6.716-15-15-15zm-30 90h-120c-8.291 0-15 6.709-15 15s6.709 15 15 15h15v15c0 8.291 6.709 15 15 15s15-6.709 15-15v-15h30v15c0 8.291 6.709 15 15 15s15-6.709 15-15v-15h15c8.291 0 15-6.709 15-15s-6.709-15-15-15zm-79.395-34.395 19.395-19.394 19.395 19.395c5.859 5.859 15.351 5.859 21.211 0 5.859-5.859 5.859-15.352 0-21.211l-30-30c-5.859-5.859-15.352-5.859-21.211 0l-30 30c-5.859 5.859-5.859 15.352 0 21.211s15.351 5.859 21.21-.001z" fill="url(#SVGID_2_)"/></g></g></g></svg>