<svg id="Capa_1" enable-background="new 0 0 512 512" height="512" viewBox="0 0 512 512" width="512" xmlns="http://www.w3.org/2000/svg" xmlns:xlink="http://www.w3.org/1999/xlink"><linearGradient id="SVGID_1_" gradientUnits="userSpaceOnUse" x1="256" x2="256" y1="389.939" y2="134.939"><stop offset="0" stop-color="#ffbef9"/><stop offset="1" stop-color="#fff1ff"/></linearGradient><linearGradient id="SVGID_2_" gradientUnits="userSpaceOnUse" x1="256" x2="256" y1="512" y2="0"><stop offset="0" stop-color="#a93aff"/><stop offset="1" stop-color="#ff81ff"/></linearGradient><g><g><g><path d="m196 134.939c-16.816 0-30 13.184-30 30s13.184 30 30 30 30-13.184 30-30-13.184-30-30-30zm150 30c0-16.816-13.184-30-30-30s-30 13.184-30 30 13.184 30 30 30 30-13.183 30-30zm-180 59.634c-8.291 0-15 6.709-15 15v45.366c0 41.353-33.633 75-75 75-8.291 0-15 6.709-15 15s6.709 15 15 15c57.891 0 105-47.109 105-105v-45.366c0-8.291-6.709-15-15-15zm270 135.366c-41.367 0-75-33.647-75-75v-45.366c0-8.291-6.709-15-15-15s-15 6.709-15 15v45.366c0 57.891 47.109 105 105 105 8.291 0 15-6.709 15-15s-6.709-15-15-15z" fill="url(#SVGID_1_)"/></g></g><g><g><path d="m412.301.24c-26.701-1.8-52.5 6.599-72.602 23.399-25.499-16.2-58.799-15.301-83.699 1.799-24.6-16.8-57.6-17.999-83.401-1.8-20.4-16.8-45.899-25.199-72.9-23.399-55.199 3-99.699 51.299-99.699 109.8 0 99.24 29.522 171.187 31.601 179.399 2.1 6.301 7.8 10.501 14.399 10.501 54 0 78.6-21.901 106.199-54 4.201 5.999 9.001 11.699 14.101 16.8 28.5 27.9 44.7 70.159 44.7 114.26 0 74.399 60.601 135 135 135 8.401 0 15-6.601 15-15v-45c0-6.901-4.799-12.9-11.4-14.7-28.5-6.901-48.6-32.4-48.6-62.1 0-42.301 16.199-84.561 44.7-112.461 5.1-5.101 9.9-10.801 14.101-16.8 27.599 32.099 52.2 54 106.199 54 6.599 0 12.299-4.201 14.399-10.501 3.691-14.582 31.601-79.843 31.601-179.398 0-58.501-44.5-106.8-99.699-109.799zm-216.301 179.699c-8.401 0-15-6.601-15-15 0-8.401 6.599-15 15-15s15 6.599 15 15c0 8.399-6.599 15-15 15zm120 0c-8.401 0-15-6.601-15-15 0-8.401 6.599-15 15-15s15 6.599 15 15c0 8.399-6.599 15-15 15z" fill="url(#SVGID_2_)"/></g></g></g></svg>