<svg id="Capa_1" enable-background="new 0 0 512 512" height="512" viewBox="0 0 512 512" width="512" xmlns="http://www.w3.org/2000/svg" xmlns:xlink="http://www.w3.org/1999/xlink"><linearGradient id="SVGID_1_" gradientUnits="userSpaceOnUse" x1="256" x2="256" y1="210.824" y2="0"><stop offset="0" stop-color="#addcff"/><stop offset=".5028" stop-color="#eaf6ff"/><stop offset="1" stop-color="#eaf6ff"/></linearGradient><linearGradient id="SVGID_2_" gradientUnits="userSpaceOnUse" x1="256" x2="256" y1="512" y2="180"><stop offset="0" stop-color="#5558ff"/><stop offset="1" stop-color="#00c0ff"/></linearGradient><g><g><g><path d="m226 315c0-16.816-13.184-30-30-30s-30 13.184-30 30 13.184 30 30 30 30-13.184 30-30zm90-30c-16.816 0-30 13.184-30 30s13.184 30 30 30 30-13.184 30-30-13.184-30-30-30zm-135 96.299 60 130.701h30l60-130.701-75-27.6zm316-321.299c-8.291 0-15 6.709-15 15 0 24.814-20.186 45-45 45h-61.379c6.898-9.113 11.845-19.709 14.002-31.379 34.863-6.441 61.377-36.932 61.377-73.621 0-8.291-6.709-15-15-15s-15 6.709-15 15c0 19.556-12.539 36.24-30 42.437v-12.437c0-8.291-6.709-15-15-15s-15 6.709-15 15v30c0 24.814-20.186 45-45 45s-45 20.186-45 45v30c0 8.291 6.709 15 15 15s15-6.709 15-15v-30c0-8.276 6.738-15 15-15h121c41.367 0 75-33.647 75-75 0-8.291-6.709-15-15-15zm-286 105v30c0 8.291 6.709 15 15 15s15-6.709 15-15v-30c0-24.814-20.186-45-45-45s-45-20.186-45-45v-30c0-8.291-6.709-15-15-15s-15 6.709-15 15v12.437c-17.461-6.197-30-22.881-30-42.437 0-8.291-6.709-15-15-15s-15 6.709-15 15c0 36.689 26.514 67.18 61.377 73.621 2.157 11.669 7.104 22.266 14.002 31.379h-61.379c-24.814 0-45-20.186-45-45 0-8.291-6.709-15-15-15s-15 6.709-15 15c0 41.353 33.633 75 75 75h121c8.262 0 15 6.724 15 15z" fill="url(#SVGID_1_)"/></g></g><g><g><path d="m466 180h-30c-28.5 0-55.499 11.4-75 31.5-19.501-20.1-46.5-31.5-75-31.5h-60c-28.5 0-55.499 11.4-75 31.5-19.501-20.1-46.5-31.5-75-31.5h-30c-8.401 0-15 6.599-15 15 0 53.099 39.6 97.2 90.901 104.099 2.699 25.201 12.9 53.401 22.5 80.7 10.499 30.301 21.599 63.5 21.599 87.201 0 24.898 20.099 45 45 45h30v-70.701l-25.499-25.8c-6-5.7-6-15.3 0-21 5.7-5.999 15.298-5.999 20.999 0l19.501 19.2 19.501-19.2c5.7-5.999 15.298-5.999 20.999 0 6 5.7 6 15.3 0 21l-25.501 25.8v70.701h30c24.901 0 45-20.102 45-45 0-25.8 11.1-58.4 21.899-88.1 9.6-26.701 19.501-54.002 22.2-79.801 51.301-6.899 90.901-51 90.901-104.099 0-8.401-6.599-15-15-15zm-270 150c-8.401 0-15-6.601-15-15 0-8.401 6.599-15 15-15s15 6.599 15 15c0 8.399-6.599 15-15 15zm120 0c-8.401 0-15-6.601-15-15 0-8.401 6.599-15 15-15s15 6.599 15 15c0 8.399-6.599 15-15 15z" fill="url(#SVGID_2_)"/></g></g></g></svg>