<svg id="Capa_1" enable-background="new 0 0 512 512" height="512" viewBox="0 0 512 512" width="512" xmlns="http://www.w3.org/2000/svg" xmlns:xlink="http://www.w3.org/1999/xlink"><linearGradient id="SVGID_1_" gradientUnits="userSpaceOnUse" x1="256" x2="256" y1="512" y2="0"><stop offset="0" stop-color="#ffc2cc"/><stop offset="1" stop-color="#fff2f4"/></linearGradient><linearGradient id="SVGID_2_" gradientUnits="userSpaceOnUse" x1="256" x2="256" y1="470.3" y2="180"><stop offset="0" stop-color="#fd3a84"/><stop offset="1" stop-color="#ffa68d"/></linearGradient><g><g><g><path d="m226 345c0-16.816-13.184-30-30-30s-30 13.184-30 30 13.184 30 30 30 30-13.184 30-30zm90-30c-16.816 0-30 13.184-30 30s13.184 30 30 30 30-13.184 30-30-13.184-30-30-30zm-116.004 75.181 2.305 80.119 17.699 23.699c8.401 11.4 21.901 18.001 36 18.001s27.599-6.601 36-18.001l17.699-23.699-5.292-93.318zm307.668-145.743-26.049-25.283 16.055-31.436c3.75-7.354.879-16.348-6.445-20.142l-31.582-16.362 5.273-34.98c1.23-8.115-4.277-15.703-12.393-17.036l-34.951-5.757-5.771-34.98c-1.318-8.115-9.111-13.667-17.051-12.393l-34.98 5.288-16.348-31.553c-3.809-7.354-12.773-10.181-20.156-6.46l-31.436 16.055-25.283-25.048c-5.801-5.801-15.293-5.801-21.094 0l-25.283 25.048-31.436-16.055c-7.354-3.735-16.348-.894-20.156 6.46l-16.348 31.553-34.98-5.288c-7.881-1.143-15.703 4.292-17.051 12.393l-5.771 34.98-34.951 5.757c-8.115 1.333-13.623 8.921-12.393 17.036l5.273 34.98-31.582 16.362c-7.324 3.794-10.195 12.788-6.445 20.142l16.055 31.436-26.049 25.283c-5.771 5.845-5.771 15.278 0 21.123l26.049 25.283-16.055 31.422c-2.139 4.175-2.197 9.111-.146 13.345 2.021 4.219 5.947 7.251 10.547 8.188l114.316 23.115c5.127.996 10.635-.732 14.18-4.761 3.545-4.014 4.688-9.609 3.018-14.678-3.487-10.444-5.245-21.371-5.245-32.475 0-12.303 1.787-18.145 1.787-21.299 0-4.409-1.934-8.599-5.303-11.455-12.979-10.972-21.68-25.869-24.99-42.246h13.506c9.639 0 19.16 1.86 28.33 5.522 5.684 2.241 12.158.85 16.377-3.545 39.609-41.25 110.977-41.25 150.586 0 4.219 4.395 10.664 5.786 16.377 3.545 9.17-3.662 18.691-5.522 28.33-5.522h13.506c-3.311 16.377-12.012 31.274-24.99 42.246-4.072 3.442-6.006 8.789-5.068 14.033 1.054 6.065 1.552 12.378 1.552 18.721 0 11.104-1.758 22.031-5.244 32.476-1.67 5.068-.527 10.664 3.018 14.678 3.41 3.862 8.718 5.836 14.18 4.761l114.316-23.115c4.6-.938 8.525-3.97 10.547-8.188 2.051-4.233 1.992-9.17-.146-13.345l-16.055-31.421 26.049-25.283c5.771-5.846 5.771-15.28-.001-21.125z" fill="url(#SVGID_1_)"/></g></g><g><g><path d="m421 225c0-8.401-6.599-15-15-15h-30c-10.201 0-20.4 1.5-30 4.499-24.6-22.2-56.7-34.499-90-34.499s-65.4 12.299-90 34.499c-9.6-3-19.799-4.499-30-4.499h-30c-8.401 0-15 6.599-15 15 0 28.2 11.1 54.898 30.901 74.399-.601 5.1-.901 10.499-.901 15.601 0 14.399 2.401 28.5 6.599 41.7 4.2 13.499 11.102 26.699 20.402 39.3l54.3 74.299c9.899-19.799 30-33.3 53.699-33.3 23.401 0 43.801 13.5 53.699 33.3l54.3-74.299c9.3-12.602 16.201-25.801 20.101-39.001 4.499-13.499 6.9-27.6 6.9-41.999 0-5.4-.3-10.501-.901-15.601 19.801-19.501 30.901-46.199 30.901-74.399zm-225 135c-8.401 0-15-6.601-15-15 0-8.401 6.599-15 15-15s15 6.599 15 15c0 8.399-6.599 15-15 15zm120 0c-8.401 0-15-6.601-15-15 0-8.401 6.599-15 15-15s15 6.599 15 15c0 8.399-6.599 15-15 15z" fill="url(#SVGID_2_)"/></g></g></g></svg>