<svg id="Capa_1" enable-background="new 0 0 512 512" height="512" viewBox="0 0 512 512" width="512" xmlns="http://www.w3.org/2000/svg" xmlns:xlink="http://www.w3.org/1999/xlink"><linearGradient id="SVGID_1_" gradientUnits="userSpaceOnUse" x1="256" x2="256" y1="512" y2="0"><stop offset="0" stop-color="#fd5900"/><stop offset="1" stop-color="#ffde00"/></linearGradient><linearGradient id="SVGID_2_" gradientUnits="userSpaceOnUse" x1="256" x2="256" y1="421" y2="121"><stop offset="0" stop-color="#ffe59a"/><stop offset="1" stop-color="#ffffd5"/></linearGradient><g><g><g><path d="m256 0c-107.52 0-195 88.48-195 196v120c0 107.52 87.48 196 195 196s195-88.48 195-196v-120c0-107.52-87.48-196-195-196z" fill="url(#SVGID_1_)"/></g></g><g><g><path d="m316 181h-120c-41.4 0-75 33.6-75 75v30c0 20.4 7.8 39 21.899 52.8 10.523 10.747 23.727 17.796 38.101 20.693v46.507c0 8.291 6.709 15 15 15s15-6.709 15-15v-46.69c11.083-2.296 21.229-6.927 30-13.61v-53.401l-25.499-25.8c-6-5.7-6-15.3 0-21 5.7-5.999 15.298-5.999 20.999 0l19.501 19.2 19.501-19.2c5.7-5.999 15.298-5.999 20.999 0 6 5.7 6 15.3 0 21l-25.501 25.8v53.701c8.895 6.826 19.127 11.201 30 13.363v46.637c0 8.291 6.709 15 15 15s15-6.709 15-15v-46.514c34.219-6.957 60-37.224 60-73.486v-30c0-41.4-33.6-75-75-75zm-120-30c8.284 0 15-6.716 15-15 0-8.286-6.716-15-15-15s-15 6.714-15 15c0 8.284 6.716 15 15 15zm120 0c8.284 0 15-6.716 15-15 0-8.286-6.716-15-15-15s-15 6.714-15 15c0 8.284 6.716 15 15 15z" fill="url(#SVGID_2_)"/></g></g></g></svg>