<svg id="Capa_1" enable-background="new 0 0 512 512" height="512" viewBox="0 0 512 512" width="512" xmlns="http://www.w3.org/2000/svg" xmlns:xlink="http://www.w3.org/1999/xlink"><linearGradient id="SVGID_1_" gradientUnits="userSpaceOnUse" x1="256" x2="256" y1="467" y2="45"><stop offset="0" stop-color="#addcff"/><stop offset=".5028" stop-color="#eaf6ff"/><stop offset="1" stop-color="#eaf6ff"/></linearGradient><linearGradient id="SVGID_2_" gradientUnits="userSpaceOnUse" x1="256" x2="256" y1="512" y2="0"><stop offset="0" stop-color="#5558ff"/><stop offset="1" stop-color="#00c0ff"/></linearGradient><g><g><g><path d="m196 75c0-16.816-13.184-30-30-30s-30 13.184-30 30 13.184 30 30 30 30-13.184 30-30zm180 0c0-16.816-13.184-30-30-30s-30 13.184-30 30 13.184 30 30 30 30-13.184 30-30zm0 105-30 70v-145h-180v145l-30-70-134.801 30c7.202 50.7 52 90 104.801 90h60v167h180v-167h60c52.8 0 97.599-39.3 104.801-90z" fill="url(#SVGID_1_)"/></g></g><g><g><path d="m420.7 67.8c-3.9-38.1-35.7-67.8-74.7-67.8-36.301 0-66.599 25.8-73.5 60h-33c-6.901-34.2-37.2-60-73.5-60-39 0-70.8 29.7-74.7 67.8-53.701 18.6-91.3 69.3-91.3 127.2 0 5.1.3 10.199 1.199 15h74.801c41.4 0 75 33.6 75 75v152c0 41.4 33.6 75 75 75h60c41.4 0 75-33.6 75-75v-152c0-41.4 33.6-75 75-75h74.801c.899-4.801 1.199-9.9 1.199-15 0-57.9-37.599-108.6-91.3-127.2zm-194.7 52.2h60c8.401 0 15 6.599 15 15 0 8.399-6.599 15-15 15h-60c-8.401 0-15-6.601-15-15 0-8.401 6.599-15 15-15zm-60-30c-8.401 0-15-6.601-15-15 0-8.401 6.599-15 15-15s15 6.599 15 15c0 8.399-6.599 15-15 15zm60 362c-8.401 0-15-6.601-15-15 0-8.401 6.599-15 15-15s15 6.599 15 15c0 8.399-6.599 15-15 15zm60 0c-8.401 0-15-6.601-15-15 0-8.401 6.599-15 15-15s15 6.599 15 15c0 8.399-6.599 15-15 15zm0-182h-60c-8.401 0-15-6.601-15-15 0-8.401 6.599-15 15-15h60c8.401 0 15 6.599 15 15 0 8.399-6.599 15-15 15zm30-60h-120c-8.401 0-15-6.601-15-15 0-8.401 6.599-15 15-15h120c8.401 0 15 6.599 15 15 0 8.399-6.599 15-15 15zm30-120c-8.401 0-15-6.601-15-15 0-8.401 6.599-15 15-15s15 6.599 15 15c0 8.399-6.599 15-15 15z" fill="url(#SVGID_2_)"/></g></g></g></svg>