<svg id="Capa_1" enable-background="new 0 0 512 512" height="512" viewBox="0 0 512 512" width="512" xmlns="http://www.w3.org/2000/svg" xmlns:xlink="http://www.w3.org/1999/xlink"><linearGradient id="lg1"><stop offset="0" stop-color="#a93aff"/><stop offset="1" stop-color="#ff81ff"/></linearGradient><linearGradient id="SVGID_1_" gradientUnits="userSpaceOnUse" x1="55.3" x2="169.921" xlink:href="#lg1" y1="125.236" y2="125.236"/><linearGradient id="SVGID_2_" gradientUnits="userSpaceOnUse" x1="342.079" x2="456.7" xlink:href="#lg1" y1="125.227" y2="125.227"/><linearGradient id="SVGID_3_" gradientUnits="userSpaceOnUse" x1="256" x2="256" xlink:href="#lg1" y1="496.022" y2="46.247"/><linearGradient id="SVGID_4_" gradientUnits="userSpaceOnUse" x1="256" x2="256" y1="495.421" y2="15.978"><stop offset="0" stop-color="#ffbef9"/><stop offset="1" stop-color="#fff1ff"/></linearGradient><g><g><path d="m160.6 73.021-6.601-2.699c-43.255 25.932-73.418 48.438-98.699 99l10.499 7.8c6.988 5.434 17.332 3.331 21.901-4.501 17.399-30.3 43.2-55.499 74.399-72.599 5.099-2.701 8.101-8.401 7.8-14.101-.299-5.699-3.899-10.8-9.299-12.9z" fill="url(#SVGID_1_)"/></g><g><path d="m358.001 70.322-6.601 2.699c-5.4 2.1-9 7.202-9.3 12.9-.3 5.7 2.701 11.102 7.8 14.101 16.199 8.699 30.899 20.099 44.099 32.999 11.4 11.7 21.901 25.201 30.601 39.901 4.263 7.306 14.844 9.69 21.899 4.2l10.201-7.8c-19.274-44.981-61.392-76.634-98.699-99z" fill="url(#SVGID_2_)"/></g><g><g><path d="m241 495.421c4.799.3 9.901.601 15 .601s10.201-.3 15-.601l55.499-144.901h-140.998zm-48.076-241.084c7.236-14.487 1.23-32.49-13.623-40.239l-30-15c-4.043-2.021-8.613-3.091-13.154-3.091-11.338 0-21.68 6.313-27.07 16.699-7.236 14.487-1.23 32.49 13.623 40.239l30.791 15.366c16.476 7.046 32.77-.667 39.433-13.974zm169.775-55.239-30.234 15.117c-14.619 7.632-20.625 25.635-13.389 40.093 6.505 13.028 22.497 21.316 40.225 13.638l30.234-15.117c14.619-7.632 20.625-25.635 13.271-40.327-7.841-15.139-25.941-20.487-40.107-13.404zm111.702 17.324c-4.2-16.5-10.201-32.401-17.701-47.1l-11.7-87.3-86.999-11.7c-63.6-32.1-140.402-32.1-204.001 0l-92.098-3.001-6.602 102.001c-7.5 14.399-13.5 30.3-17.701 47.1-1.8 7.8 2.701 15.601 10.201 17.999 7.8 2.401 15.901-1.8 18.6-9.3 12.9-35.4 46.8-59.099 84.6-59.099 49.501 0 90 40.499 90 90 0 8.399 6.599 15 15 15s15-6.601 15-15c0-49.501 40.499-90 90-90 37.8 0 71.7 23.699 84.6 59.099 2.699 7.5 10.8 11.7 18.6 9.3 7.5-2.399 12.001-10.199 10.201-17.999z" fill="url(#SVGID_3_)"/></g></g><g><g><path d="m361 136.022c-45 0-84.6 24.899-105 61.8-20.4-36.901-60-61.8-105-61.8-53.679 0-98.716 36.165-113.699 81.299-4.201 17.4-6.301 35.401-6.301 53.701v30c0 8.399 6.599 15 15 15h30c41.4 0 75 33.6 75 75 0 61.5 32.701 99 90 104.399v-68.101l-25.499-25.8c-6-5.7-6-15.3 0-21 5.7-5.999 15.298-5.999 20.999 0l19.501 19.2 19.501-19.2c5.7-5.999 15.298-5.999 20.999 0 6 5.7 6 15.3 0 21l-25.501 25.801v68.101c57.299-5.4 90-42.9 90-104.399 0-41.4 33.6-75 75-75h30c8.401 0 15-6.601 15-15v-30c0-18.3-2.1-36.301-6.301-53.701-15.349-46.238-61.133-81.3-113.699-81.3zm-181.5 111.599c-3.325 6.647-11.307 10.668-20.099 6.901l-30-15c-7.5-3.9-10.501-12.902-6.901-20.101 3.9-7.5 12.9-10.499 20.099-6.899l30 15c7.5 3.9 10.501 12.899 6.901 20.099zm203.099-8.099-30 15c-8.836 3.786-16.798-.301-20.099-6.901-3.6-7.2-.599-16.199 6.901-20.099l30-15c7.2-3.6 16.199-.601 20.099 6.899 3.6 7.2.599 16.201-6.901 20.101zm-327.299-70.2c25.281-50.562 55.444-73.068 98.699-99l-133.299-53.101c-4.799-2.1-9.901-1.5-14.101 1.5-4.198 2.701-6.599 7.2-6.599 12.301v30c0 71.441 52.78 105.265 55.3 108.3zm450.101-150.601c-4.2-2.999-9.302-3.6-14.101-1.5l-133.299 53.101c37.307 22.366 79.425 54.019 98.699 99 2.493-3.002 55.3-35.748 55.3-108.3v-30c0-5.101-2.401-9.6-6.599-12.301z" fill="url(#SVGID_4_)"/></g></g></g></svg>