<svg id="Capa_1" enable-background="new 0 0 512 512" height="512" viewBox="0 0 512 512" width="512" xmlns="http://www.w3.org/2000/svg" xmlns:xlink="http://www.w3.org/1999/xlink"><linearGradient id="SVGID_1_" gradientUnits="userSpaceOnUse" x1="256" x2="256" y1="461.472" y2="20.528"><stop offset="0" stop-color="#5558ff"/><stop offset="1" stop-color="#00c0ff"/></linearGradient><linearGradient id="SVGID_2_" gradientUnits="userSpaceOnUse" x1="256" x2="256" y1="491.472" y2="71.508"><stop offset="0" stop-color="#addcff"/><stop offset=".5028" stop-color="#eaf6ff"/><stop offset="1" stop-color="#eaf6ff"/></linearGradient><g id="Dog_3_"><g><g><path d="m256 161.472c-57.99 0-105 67.157-105 150s47.01 150 105 150 105-67.157 105-150-47.01-150-105-150zm-28.041-57.29c7.002-1.421 12.041-7.573 12.041-14.707 0-22.354-10.928-43.433-29.238-56.411-17.959-12.744-40.107-15.952-60.645-8.745-89.795 31.699-150.117 116.953-150.117 212.153v6.592c0 37.72 30.674 68.408 68.408 68.408h36.592c8.291 0 15-6.709 15-15v-60c0-64.043 45.41-119.678 107.959-132.29zm133.924-79.863c-20.596-7.222-42.656-4.028-60.645 8.745-18.31 12.979-29.238 34.058-29.238 56.411 0 7.134 5.01 13.271 12.012 14.692 64.324 13.132 107.988 69.031 107.988 132.305v60c0 8.291 6.709 15 15 15h36.592c37.734 0 68.408-30.688 68.408-68.408v-6.592c0-95.2-60.322-180.454-150.117-212.153z" fill="url(#SVGID_1_)"/></g></g><g><g><path d="m289.3 74.772c-20.4-4.501-46.5-4.2-66.299 0-76.502 15.3-132.001 83.401-132.001 161.7v90c0 90.899 74.099 165 165 165s165-74.101 165-165v-90c0-77.456-53.872-145.549-131.7-161.7zm-93.3 176.7c-8.401 0-15-6.601-15-15 0-8.401 6.599-15 15-15s15 6.599 15 15c0 8.399-6.599 15-15 15zm90 180c-11.7 0-21.899-4.501-30-11.7-8.101 7.2-18.3 11.7-30 11.7-8.401 0-15-6.601-15-15 0-8.401 6.599-15 15-15s15-6.601 15-15v-23.701l-25.499-25.8c-6-5.7-6-15.3 0-21 5.7-5.999 15.298-5.999 20.999 0l19.501 19.2 19.501-19.2c5.7-5.999 15.298-5.999 20.999 0 6 5.7 6 15.3 0 21l-25.501 25.8v23.701c0 8.399 6.599 15 15 15s15 6.599 15 15c0 8.399-6.599 15-15 15zm30-180c-8.401 0-15-6.601-15-15 0-8.401 6.599-15 15-15s15 6.599 15 15c0 8.399-6.599 15-15 15z" fill="url(#SVGID_2_)"/></g></g></g></svg>