<svg id="Capa_1" enable-background="new 0 0 512 512" height="512" viewBox="0 0 512 512" width="512" xmlns="http://www.w3.org/2000/svg" xmlns:xlink="http://www.w3.org/1999/xlink"><linearGradient id="SVGID_1_" gradientUnits="userSpaceOnUse" x1="256.001" x2="256.001" y1="451" y2="61"><stop offset="0" stop-color="#fd5900"/><stop offset="1" stop-color="#ffde00"/></linearGradient><linearGradient id="SVGID_2_" gradientUnits="userSpaceOnUse" x1="256" x2="256" y1="391" y2="211"><stop offset="0" stop-color="#ffe59a"/><stop offset="1" stop-color="#ffffd5"/></linearGradient><g><g><g><path d="m451 171.684v-95.684c0-8.291-6.709-15-15-15-33.984 0-65.918 12.539-90.908 35.479-14.384-3.633-29.15-5.479-44.092-5.479h-90c-14.941 0-29.707 1.846-44.092 5.479-24.99-22.94-56.923-35.479-90.908-35.479-8.291 0-15 6.709-15 15v95.684c-19.628 29.59-30 63.823-30 99.316 0 99.258 80.742 180 180 180h90c99.258 0 180-80.742 180-180 0-35.493-10.371-69.726-30-99.316z" fill="url(#SVGID_1_)"/></g></g><g><g><path d="m196.001 211c-8.284 0-15 6.714-15 15 0 8.284 6.716 15 15 15s15-6.716 15-15c0-8.285-6.717-15-15-15zm119.999 0c-8.284 0-15 6.714-15 15 0 8.284 6.716 15 15 15s15-6.716 15-15c0-8.285-6.716-15-15-15zm-19.394 85.606c5.859-5.859 5.859-15.352 0-21.211s-15.352-5.859-21.211 0l-19.395 19.394-19.395-19.395c-5.859-5.859-15.352-5.859-21.211 0s-5.859 15.352 0 21.211l25.605 25.605v23.79c0 8.276-6.738 15-15 15-8.291 0-15 6.709-15 15s6.709 15 15 15c11.567 0 22.02-4.508 30-11.704 7.98 7.196 18.433 11.704 30 11.704 8.291 0 15-6.709 15-15s-6.709-15-15-15c-8.262 0-15-6.724-15-15v-23.789zm-158.818-25.137-119.096-30c-8.145-2.109-16.172 2.827-18.223 10.84-2.051 8.027 2.813 16.187 10.84 18.223l119.096 30c7.811 2.046 16.143-2.664 18.223-10.84 2.05-8.028-2.813-16.187-10.84-18.223zm-9.053 62.476-117.192 27.451c-8.057 1.904-13.037 9.99-11.133 18.047 1.821 7.816 9.637 13.054 18.047 11.162l117.191-27.451c8.057-1.904 13.037-9.99 11.133-18.047-1.874-8.086-9.872-13.008-18.046-11.162zm250.898-33.399 120.993-30c8.057-2.007 12.92-10.151 10.928-18.179-2.021-8.057-10.283-12.964-18.193-10.913l-120.993 30c-8.057 2.007-12.92 10.151-10.928 18.179 2.024 8.133 10.307 12.933 18.193 10.913zm120.994 60.908-120.993-30c-8.203-2.08-16.201 2.871-18.193 10.913-1.992 8.027 2.871 16.172 10.928 18.179l120.993 30c8.022 2.006 16.188-2.856 18.193-10.913 1.992-8.027-2.872-16.172-10.928-18.179z" fill="url(#SVGID_2_)"/></g></g></g></svg>