<svg id="Capa_1" enable-background="new 0 0 512 512" height="512" viewBox="0 0 512 512" width="512" xmlns="http://www.w3.org/2000/svg" xmlns:xlink="http://www.w3.org/1999/xlink"><linearGradient id="SVGID_1_" gradientUnits="userSpaceOnUse" x1="256" x2="256" y1="511.999" y2=".002"><stop offset="0" stop-color="#5558ff"/><stop offset="1" stop-color="#00c0ff"/></linearGradient><linearGradient id="SVGID_2_" gradientUnits="userSpaceOnUse" x1="256.006" x2="256.006" y1="480.998" y2="120.998"><stop offset="0" stop-color="#addcff"/><stop offset=".5028" stop-color="#eaf6ff"/><stop offset="1" stop-color="#eaf6ff"/></linearGradient><g><g><g><path d="m406.006 315.998c0-66.167-67.295-120-150-120s-150 53.833-150 120 67.295 120 150 120 150-53.833 150-120zm-207.51-154.263c4.658 4.043 11.309 4.834 16.787 1.934 15.557-8.174 30.029-12.671 40.723-12.671s25.166 4.497 40.723 12.671c5.488 2.89 12.147 2.096 16.787-1.934 4.688-4.043 6.387-10.532 4.336-16.348l-47.696-136.399c-4.277-11.982-24.023-11.982-28.301 0l-47.695 136.4c-2.05 5.815-.351 12.304 4.336 16.347zm-47.197 266.939c-27.715-14.282-46.113-34.878-54.727-61.23-1.699-5.2-6.123-9.067-11.484-10.078-5.566-1.099-10.898.996-14.355 5.2-53.591 65.128-64.906 117.831-69.907 129.54-2.109 6.079-.088 12.832 5.01 16.758 5.181 3.998 12.221 4.138 17.49.615 3.149-1.7 52.512-38.659 123.988-52.753 6.27-1.245 11.045-6.299 11.953-12.627.88-6.314-2.314-12.51-7.968-15.425zm359.875 63.432c-3.616-8.466-19.173-67.899-69.894-129.54-3.457-4.219-8.818-6.226-14.355-5.2-5.361 1.011-9.785 4.878-11.484 10.078-8.613 26.353-27.012 46.948-54.727 61.23-5.654 2.915-8.848 9.111-7.969 15.425.908 6.328 5.684 11.382 11.953 12.627 73.696 14.532 119.943 50.576 123.976 52.753 5.27 3.523 12.31 3.382 17.49-.615 5.098-3.926 7.119-10.679 5.01-16.758z" fill="url(#SVGID_1_)"/></g></g><g><g><path d="m310.606 137.197c-40.501-21.599-68.699-21.599-109.2 0-58.2 30.601-140.4 111-140.4 193.801 0 102.823 91.363 150 195 150 102.349 0 195-46.426 195-150 0-82.8-82.2-163.2-140.4-193.801zm-95.099 138.3 30-30c5.7-5.999 15.298-5.999 20.999 0l30 30c6 5.7 6 15.3 0 21-2.699 3.001-6.599 4.501-10.499 4.501s-7.8-1.5-10.499-4.501l-19.501-19.2-19.501 19.2c-5.7 6-15.298 6-20.999 0-6.001-5.7-6.001-15.3 0-21zm-49.501-34.499c8.401 0 15 6.599 15 15 0 8.399-6.599 15-15 15s-15-6.601-15-15c0-8.401 6.599-15 15-15zm190.499 145.499c-2.699 3.001-6.599 4.501-10.499 4.501s-7.8-1.5-10.499-4.501l-19.501-19.2-19.501 19.2c-5.7 6-15.298 6-20.999 0l-19.501-19.2-19.501 19.2c-5.7 6-15.298 6-20.999 0l-19.501-19.2-19.501 19.2c-5.7 6-15.298 6-20.999 0-6-5.7-6-15.3 0-21l30-30c5.7-5.999 15.298-5.999 20.999 0l19.501 19.2 19.501-19.2c5.7-5.999 15.298-5.999 20.999 0l19.501 19.2 19.501-19.2c5.7-5.999 15.298-5.999 20.999 0l30 30c6.001 5.7 6.001 15.3 0 21zm-10.499-115.499c-8.401 0-15-6.601-15-15 0-8.401 6.599-15 15-15s15 6.599 15 15c0 8.399-6.599 15-15 15z" fill="url(#SVGID_2_)"/></g></g></g></svg>