<svg id="Capa_1" enable-background="new 0 0 512 512" height="512" viewBox="0 0 512 512" width="512" xmlns="http://www.w3.org/2000/svg" xmlns:xlink="http://www.w3.org/1999/xlink"><linearGradient id="SVGID_1_" gradientUnits="userSpaceOnUse" x1="256" x2="256" y1="512" y2="60"><stop offset="0" stop-color="#00b59c"/><stop offset="1" stop-color="#9cffac"/></linearGradient><linearGradient id="SVGID_2_" gradientUnits="userSpaceOnUse" x1="256" x2="256" y1="445.699" y2="0"><stop offset="0" stop-color="#c3ffe8"/><stop offset=".9973" stop-color="#f0fff4"/></linearGradient><g><g><g><path d="m226 227c0-16.816-13.184-30-30-30s-30 13.184-30 30 13.184 30 30 30 30-13.184 30-30zm90-30c-16.816 0-30 13.184-30 30s13.184 30 30 30 30-13.184 30-30-13.184-30-30-30zm-120-45c8.291 0 15-6.709 15-15v-62c0-8.291-6.709-15-15-15s-15 6.709-15 15v62c0 8.291 6.709 15 15 15zm120 0c8.291 0 15-6.709 15-15v-62c0-8.291-6.709-15-15-15s-15 6.709-15 15v62c0 8.291 6.709 15 15 15zm-240 0h-61c-8.291 0-15 6.709-15 15 0 41.353 33.633 75 75 75h61c8.291 0 15-6.709 15-15 0-41.353-33.633-75-75-75zm421 0h-61c-41.367 0-75 33.647-75 75 0 8.291 6.709 15 15 15h61c41.367 0 75-33.647 75-75 0-8.291-6.709-15-15-15zm-196 150h-90c-30.901 0-26.4 113.699-29.7 143.699-.3 2.1-.3 4.2-.3 6.301 0 32.999 27.001 60 60 60h30c32.999 0 60-27.001 60-60 0-2.1 0-4.2-.3-6.301-3.3-30 1.201-143.699-29.7-143.699z" fill="url(#SVGID_1_)"/></g></g><g><g><path d="m316 122h-120c-41.4 0-75 33.6-75 75v60c0 49.499 17.4 75.599 32.701 98.399 15.899 23.401 29.7 44.101 27.6 90.3 3.3-30 28.799-53.699 59.7-53.699h30c30.901 0 56.4 23.699 59.7 53.699-2.1-46.199 11.7-66.899 27.6-90.3 15.299-22.8 32.699-48.9 32.699-98.399v-60c0-41.4-33.6-75-75-75zm-120 120c-8.401 0-15-6.601-15-15 0-8.401 6.599-15 15-15s15 6.599 15 15c0 8.399-6.599 15-15 15zm120 0c-8.401 0-15-6.601-15-15 0-8.401 6.599-15 15-15s15 6.599 15 15c0 8.399-6.599 15-15 15zm-120-152c24.814 0 45-20.186 45-45s-20.186-45-45-45-45 20.186-45 45 20.186 45 45 45zm120 0c24.814 0 45-20.186 45-45s-20.186-45-45-45-45 20.186-45 45 20.186 45 45 45z" fill="url(#SVGID_2_)"/></g></g></g></svg>