<svg id="Capa_1" enable-background="new 0 0 512 512" height="512" viewBox="0 0 512 512" width="512" xmlns="http://www.w3.org/2000/svg" xmlns:xlink="http://www.w3.org/1999/xlink"><linearGradient id="SVGID_1_" gradientUnits="userSpaceOnUse" x1="256" x2="256" y1="512" y2="0"><stop offset="0" stop-color="#fd5900"/><stop offset="1" stop-color="#ffde00"/></linearGradient><linearGradient id="SVGID_2_" gradientUnits="userSpaceOnUse" x1="256.024" x2="256.024" y1="512" y2="91.524"><stop offset="0" stop-color="#ffe59a"/><stop offset="1" stop-color="#ffffd5"/></linearGradient><g><g><g><path d="m241 512h30l55.499-146.501h-140.998zm-15-226c0-16.816-13.184-30-30-30s-30 13.184-30 30 13.184 30 30 30 30-13.184 30-30zm90-30c-16.816 0-30 13.184-30 30s13.184 30 30 30 30-13.184 30-30-13.184-30-30-30zm181-256c-80.684 0-152.963 49.589-182.641 124.794-2.49 6.284-.469 13.447 4.951 17.505 16.904 12.686 29.736 30.527 36.123 50.229 2.547 7.877 10.976 12.131 18.779 9.683 81.827-25.825 137.788-101.649 137.788-187.211 0-8.291-6.709-15-15-15zm-304.311 142.299c5.42-4.058 7.441-11.221 4.951-17.505-29.677-75.205-101.956-124.794-182.64-124.794-8.291 0-15 6.709-15 15 0 85.562 55.961 161.386 137.787 187.211 7.806 2.449 16.233-1.808 18.779-9.683 6.387-19.702 19.219-37.544 36.123-50.229z" fill="url(#SVGID_1_)"/></g></g><g><g><path d="m419.2 303.399c-3.604-12.379-33.78-116.692-35.099-120-8.401-25.8-24.901-48.6-46.8-65.099-46.8-35.7-115.801-35.7-162.601 0-32.331 24.359-48.3 63.026-48.3 69.901l-33.3 114.599c-7.793 21.828 5.323 49.391 30.899 56.7l28.801 107.2c6.601 26.7 30.601 45.3 58.2 45.3h30v-69.701l-25.499-25.8c-6-5.7-6-15.3 0-21 5.7-5.999 15.298-5.999 20.999 0l19.501 19.2 19.501-19.2c5.7-5.999 15.298-5.999 20.999 0 6 5.7 6 15.3 0 21l-25.501 25.8v69.701h30c27.599 0 51.599-18.6 57.9-45l29.101-107.5c25.153-7.188 38.487-34.214 31.199-56.101zm-223.2-2.399c-8.401 0-15-6.601-15-15 0-8.401 6.599-15 15-15s15 6.599 15 15c0 8.399-6.599 15-15 15zm120 0c-8.401 0-15-6.601-15-15 0-8.401 6.599-15 15-15s15 6.599 15 15c0 8.399-6.599 15-15 15z" fill="url(#SVGID_2_)"/></g></g></g></svg>