<svg id="Capa_1" enable-background="new 0 0 512 512" height="512" viewBox="0 0 512 512" width="512" xmlns="http://www.w3.org/2000/svg" xmlns:xlink="http://www.w3.org/1999/xlink"><linearGradient id="SVGID_1_" gradientUnits="userSpaceOnUse" x1="256" x2="256" y1="436" y2="31"><stop offset="0" stop-color="#fd3a84"/><stop offset="1" stop-color="#ffa68d"/></linearGradient><linearGradient id="SVGID_2_" gradientUnits="userSpaceOnUse" x1="256" x2="256" y1="481" y2="31.15"><stop offset="0" stop-color="#ffc2cc"/><stop offset="1" stop-color="#fff2f4"/></linearGradient><g><g><g><path d="m196 226c16.816 0 30-13.184 30-30s-13.184-30-30-30-30 13.184-30 30 13.184 30 30 30zm120 0c16.816 0 30-13.184 30-30s-13.184-30-30-30-30 13.184-30 30 13.184 30 30 30zm-60 30c-67.295 0-120 39.536-120 90s52.705 90 120 90 120-39.536 120-90-52.705-90-120-90zm-91.875-161.66c6.211-4.6 7.91-13.154 3.926-19.775-16.436-27.276-45.235-43.565-77.051-43.565h-76c-8.291 0-15 6.709-15 15v75c0 39.8 26.371 74.268 64.135 85.752 7.039 2.155 14.848-1.187 18.018-8.159 19.16-42.202 48.251-79.219 81.972-104.253zm332.875-63.34h-76c-31.816 0-60.615 16.289-77.051 43.564-3.984 6.621-2.285 15.176 3.926 19.775 33.721 25.034 62.813 62.051 81.973 104.253 3.17 6.974 10.98 10.313 18.018 8.159 37.763-11.483 64.134-45.951 64.134-85.751v-75c0-8.291-6.709-15-15-15z" fill="url(#SVGID_1_)"/></g></g><g><g><path d="m365.799 70.3c-69.598-52.2-150-52.2-219.598 0-70.506 52.039-115.201 143.924-115.201 215.7 0 107.399 100.8 195 225 195s225-87.601 225-195c0-72.189-45.154-164-115.201-215.7zm-49.799 110.7c8.401 0 15 6.599 15 15 0 8.399-6.599 15-15 15s-15-6.601-15-15c0-8.401 6.599-15 15-15zm-120 0c8.401 0 15 6.599 15 15 0 8.399-6.599 15-15 15s-15-6.601-15-15c0-8.401 6.599-15 15-15zm60 240c-58.801 0-105-33.001-105-75 0-42.001 46.199-75 105-75s105 32.999 105 75c0 41.999-46.199 75-105 75zm-30-90c-8.284 0-15 6.716-15 15s6.716 15 15 15 15-6.716 15-15-6.716-15-15-15zm60 0c-8.284 0-15 6.716-15 15s6.716 15 15 15 15-6.716 15-15-6.716-15-15-15z" fill="url(#SVGID_2_)"/></g></g></g></svg>