<svg id="Capa_1" enable-background="new 0 0 512 512" height="512" viewBox="0 0 512 512" width="512" xmlns="http://www.w3.org/2000/svg" xmlns:xlink="http://www.w3.org/1999/xlink"><linearGradient id="SVGID_1_" gradientUnits="userSpaceOnUse" x1="256" x2="256" y1="479.763" y2="182.145"><stop offset="0" stop-color="#ffbef9"/><stop offset="1" stop-color="#fff1ff"/></linearGradient><linearGradient id="SVGID_2_" gradientUnits="userSpaceOnUse" x1="256" x2="256" y1="422.166" y2="32.237"><stop offset="0" stop-color="#a93aff"/><stop offset="1" stop-color="#ff81ff"/></linearGradient><g id="Fox_2_"><g><g><path d="m122.699 239.089 30.791 15.366c16.477 7.045 32.771-.668 39.434-13.975 7.236-14.487 1.23-32.49-13.623-40.239l-30-15c-14.235-7.118-32.272-1.713-40.225 13.608-7.236 14.488-1.23 32.491 13.623 40.24zm236.602 15 30.234-15.117c14.619-7.632 20.625-25.635 13.271-40.327-7.841-15.138-25.941-20.486-40.107-13.403l-30.234 15.117c-14.619 7.632-20.625 25.635-13.389 40.093 6.505 13.028 22.497 21.316 40.225 13.637zm106.699-11.923-180.463 27.371h-59.073l-180.464-27.371-43.854 22.705c3.056 5.14 76.166 122.948 201.015 151.174 2.194 7.793 4.411 15.635 5.612 23.069 3.486 23.174 23.789 40.649 47.227 40.649s43.74-17.476 47.197-40.503c1.225-7.557 3.442-15.403 5.643-23.216 124.852-28.224 197.957-146.034 201.013-151.174z" fill="url(#SVGID_1_)"/></g></g><g><g><path d="m510.493 250.264c-.601-.599-11.193-19.799-29.493-45.899v-157.032c0-7.993-6.278-15.038-14.271-15.093-44.21-.301-84.175 20.54-109.929 56.326-66-35.101-135.599-35.101-201.599 0-25.755-35.786-65.72-56.627-109.93-56.326-7.993.055-14.271 7.1-14.271 15.093v157.032c-18.3 26.1-28.892 45.3-29.493 45.899-2.1 4.801-2.1 10.201.601 14.702 2.999 4.499 7.8 7.2 12.9 7.2h30.992c76.5 0 138.3 73.799 157.2 144 16.201 3.6 34.501 6 52.8 6s36.599-2.401 52.8-6c18.9-70.201 80.7-144 157.2-144h30.992c5.1 0 9.901-2.701 12.9-7.2 2.701-4.501 2.701-9.901.601-14.702zm-330.993-16.499c-3.325 6.647-11.307 10.668-20.1 6.901l-30-15c-7.5-3.9-10.501-12.902-6.901-20.101 3.9-7.5 12.9-10.499 20.1-6.899l30 15c7.5 3.899 10.501 12.899 6.901 20.099zm203.099-8.099-30 15c-8.835 3.786-16.798-.301-20.1-6.901-3.6-7.2-.599-16.199 6.901-20.099l30-15c7.2-3.6 16.199-.601 20.1 6.899 3.6 7.199.599 16.201-6.901 20.101z" fill="url(#SVGID_2_)"/></g></g></g></svg>