<svg id="Capa_1" enable-background="new 0 0 512 512" height="512" viewBox="0 0 512 512" width="512" xmlns="http://www.w3.org/2000/svg" xmlns:xlink="http://www.w3.org/1999/xlink"><linearGradient id="SVGID_1_" gradientUnits="userSpaceOnUse" x1="256" x2="256" y1="465.399" y2="46"><stop offset="0" stop-color="#5558ff"/><stop offset="1" stop-color="#00c0ff"/></linearGradient><linearGradient id="SVGID_2_" gradientUnits="userSpaceOnUse" x1="255.85" x2="255.85" y1="466" y2="181"><stop offset="0" stop-color="#addcff"/><stop offset=".5028" stop-color="#eaf6ff"/><stop offset="1" stop-color="#eaf6ff"/></linearGradient><g><g><g><path d="m510.425 264.099c-.601-.599-11.426-20.1-29.425-45.899v-157.2c0-8.401-6.599-15-15-15-43.2 0-83.699 21.299-109.2 56.4-65.7-35.101-135.899-35.101-201.599 0-25.502-35.101-66.001-56.4-109.201-56.4-8.401 0-15 6.599-15 15v157.2c-17.999 25.8-28.824 45.3-29.425 45.899-2.1 4.501-2.1 9.3 0 13.5.3.3.601.901.901 1.8l76.824 11.701-6.899 84.3c40.499 42.9 97.2 84.9 168.6 90l15-35.7 15 35.7c71.4-5.1 128.101-47.1 168.6-90l-6.899-54.3 76.523-41.4c.601-1.199.901-1.8 1.201-2.1 2.099-4.201 2.099-9-.001-13.501z" fill="url(#SVGID_1_)"/></g></g></g><g><g><path d="m379.3 190.899c-3.6-2.399-16.8-9.899-33.3-9.899-32.999 0-60 26.999-60 60 0 20.7 10.499 39.3 26.7 50.1l126.899 84.3c39.901-42.299 64.524-85.499 69.624-95.7zm-33.3 65.101c-8.401 0-15-6.601-15-15 0-8.401 6.599-15 15-15s15 6.599 15 15c0 8.399-6.599 15-15 15zm-180-75c-18.637 0-29.475 8.509-34.501 10.8l-129.023 87.599c5.099 9.6 29.723 53.401 69.924 96l126.9-84.299c16.201-10.8 26.7-29.4 26.7-50.1 0-33.001-27.001-60-60-60zm0 75c-8.401 0-15-6.601-15-15 0-8.401 6.599-15 15-15s15 6.599 15 15c0 8.399-6.599 15-15 15zm109.501 94.499-19.501 19.2-19.501-19.2c-5.7-5.999-15.298-5.999-20.999 0-6 5.7-6 15.3 0 21l25.499 25.8v68.101c4.799.3 9.901.601 15 .601s10.201-.3 15-.601v-68.101l25.499-25.8c6-5.7 6-15.3 0-21-5.699-5.999-15.297-5.999-20.997 0z" fill="url(#SVGID_2_)"/></g></g></svg>