<svg id="Capa_1" enable-background="new 0 0 512 512" height="512" viewBox="0 0 512 512" width="512" xmlns="http://www.w3.org/2000/svg" xmlns:xlink="http://www.w3.org/1999/xlink"><linearGradient id="SVGID_1_" gradientUnits="userSpaceOnUse" x1="256" x2="256" y1="496.5" y2="17.699"><stop offset="0" stop-color="#a93aff"/><stop offset="1" stop-color="#ff81ff"/></linearGradient><linearGradient id="SVGID_2_" gradientUnits="userSpaceOnUse" x1="256" x2="256" y1="436.5" y2="16.251"><stop offset="0" stop-color="#ffbef9"/><stop offset="1" stop-color="#fff1ff"/></linearGradient><g><g><g><path d="m481 151.2-7.5-42.9-54.3-54.3-42.9-7.2c-32.7-17.4-68.701-27.301-105.3-29.101l-15 88.801-15-88.801c-36.599 1.8-72.6 11.7-105.3 29.101l-42.9 7.2-54.3 54.3-7.5 42.9c-19.799 36.599-31 78.3-31 120.3v90c0 6 3.6 11.4 9.3 13.799 5.7 2.4 12.001 1.201 16.199-3.3l13.902-12.599 22.5 66.899c1.5 4.801 5.698 8.701 10.499 9.9 5.099 1.199 10.499-.3 14.099-4.2l19.501-19.2 15.3 15.3c3.3 38.101 35.4 68.401 74.7 68.401h120c39.3 0 71.4-30.3 74.7-68.401l15.3-15.3 19.501 19.2c3.6 3.9 9 5.099 14.099 4.2 4.801-1.199 9-5.1 10.499-9.9l22.5-66.899 13.902 12.599c4.198 4.501 10.8 5.7 16.199 3.3 5.7-2.399 9.3-7.798 9.3-13.799v-90c0-42.001-11.201-83.701-31-120.3z" fill="url(#SVGID_1_)"/></g></g><g><g><path d="m75 15.5c-41.4 0-75 33.6-75 75 0 24 12.4 47.199 31 60.7 25.062-46.988 69.422-87.945 104.7-104.4-13.501-18.9-36.7-31.3-60.7-31.3zm362 0c-24 0-47.199 12.4-60.7 31.3 33.856 15.791 78.705 55.662 104.7 104.4 18.6-13.5 31-36.7 31-60.7 0-41.4-33.6-75-75-75zm-245.131 103.979c15.643-6.636 32.313-9.913 49.131-11.437v29.947c-12.788 1.426-25.459 4.026-37.441 9.102-7.617 3.237-11.191 12.041-7.939 19.658 3.193 7.661 11.982 11.191 19.658 7.969 8.245-3.496 16.934-5.466 25.723-6.731v13.513c0 8.399 6.599 15 15 15s15-6.601 15-15v-13.513c8.789 1.265 17.478 3.235 25.723 6.731 7.872 3.28 16.533-.519 19.658-7.969 3.252-7.617-.322-16.421-7.939-19.658-11.982-5.076-24.653-7.676-37.441-9.102v-29.947c16.818 1.523 33.488 4.801 49.131 11.437 7.573 3.204 16.436-.291 19.658-7.954 3.252-7.632-.322-16.436-7.939-19.673-19.402-8.212-40.014-12.946-60.85-14.533v-59.62c-9.9-.601-20.1-.601-30 0v59.619c-20.835 1.588-41.448 6.321-60.85 14.533-7.617 3.237-11.191 12.041-7.939 19.673 3.221 7.632 12.068 11.177 19.656 7.955zm104.736 222.626c5.859-5.859 5.859-15.352 0-21.211s-15.352-5.859-21.211 0l-19.394 19.395-19.395-19.395c-5.859-5.859-15.352-5.859-21.211 0s-5.859 15.352 0 21.211l25.606 25.606v28.636c-9.366 2.527-18.27 7.213-25.605 14.548-5.859 5.845-5.859 15.352 0 21.211s15.352 5.859 21.211 0c10.664-10.664 28.125-10.664 38.789 0 5.859 5.859 15.351 5.859 21.211 0 5.859-5.859 5.859-15.366 0-21.211-7.335-7.335-16.24-12.021-25.605-14.548v-28.636zm-93.896-114.023-30-15c-7.412-3.647-16.406-.718-20.127 6.709-3.691 7.412-.703 16.421 6.709 20.127l30 15c7.58 3.739 16.469.586 20.127-6.709 3.691-7.412.703-16.421-6.709-20.127zm136.582-15-30 15c-7.412 3.706-10.4 12.715-6.709 20.127 3.654 7.288 12.542 10.45 20.127 6.709l30-15c7.412-3.706 10.4-12.715 6.709-20.127-3.721-7.427-12.686-10.386-20.127-6.709z" fill="url(#SVGID_2_)"/></g></g></g></svg>