<svg id="Capa_1" enable-background="new 0 0 511.994 511.994" height="512" viewBox="0 0 511.994 511.994" width="512" xmlns="http://www.w3.org/2000/svg" xmlns:xlink="http://www.w3.org/1999/xlink"><linearGradient id="SVGID_1_" gradientUnits="userSpaceOnUse" x1="255.997" x2="255.997" y1="450.997" y2="78.396"><stop offset="0" stop-color="#ffe59a"/><stop offset="1" stop-color="#ffffd5"/></linearGradient><linearGradient id="SVGID_2_" gradientUnits="userSpaceOnUse" x1="255.997" x2="255.997" y1="360.997" y2="60.997"><stop offset="0" stop-color="#fd5900"/><stop offset="1" stop-color="#ffde00"/></linearGradient><g><g><g><path d="m369.699 92.196c-8.399-5.4-17.399-9.901-26.699-13.801h-174.001c-9.3 3.9-18.3 8.401-26.699 13.801l-36.3 178.801h40.254l4.746 90c0 49.799 47.1 90 105 90s105-40.201 105-90l13.469-90h31.531zm-264.699 238.801h-60c-8.262 0-15-6.724-15-15 0-8.291-6.709-15-15-15s-15 6.709-15 15v120c0 8.291 6.709 15 15 15 57.891 0 105-47.109 105-105 0-8.291-6.709-15-15-15zm391.994-30c-8.291 0-15 6.709-15 15 0 8.276-6.738 15-15 15h-60c-8.291 0-15 6.709-15 15 0 57.891 47.109 105 105 105 8.291 0 15-6.709 15-15v-120c0-8.291-6.709-15-15-15z" fill="url(#SVGID_1_)"/></g></g><g><g><path d="m226 330.997c-8.284 0-15 6.716-15 15s6.716 15 15 15 15-6.716 15-15-6.716-15-15-15zm60 0c-8.284 0-15 6.716-15 15s6.716 15 15 15 15-6.716 15-15-6.716-15-15-15zm20.7-180 25.8-51.601s0 0 0-.3l10.501-20.7c-26.7-11.1-56.1-17.399-87.001-17.399s-60.3 6.299-87.001 17.399l36.301 72.601zm174.994 122.399c-4.2-77.399-48.693-144.3-111.994-181.199l-36.9 73.8 22.5 45h20.7c8.401 0 15 6.599 15 15 0 8.399-6.599 15-15 15h-30c-5.7 0-10.8-3.3-13.5-8.401l-25.8-51.599h-101.4l-25.8 51.599c-2.701 5.101-7.8 8.401-13.5 8.401h-30c-8.401 0-15-6.601-15-15 0-8.401 6.599-15 15-15h20.7l22.5-45-36.899-73.801c-63.301 36.899-107.8 103.801-112 181.199-17.701 6-30.3 22.8-30.3 42.601 0 24.899 20.099 45 45 45h106c0-49.801 47.1-90 105-90s105 40.199 105 90h105.994c24.901 0 45-20.101 45-45-.001-19.8-12.6-36.6-30.301-42.6z" fill="url(#SVGID_2_)"/></g></g></g></svg>