<svg id="Capa_1" enable-background="new 0 0 512 512" height="512" viewBox="0 0 512 512" width="512" xmlns="http://www.w3.org/2000/svg" xmlns:xlink="http://www.w3.org/1999/xlink"><linearGradient id="SVGID_1_" gradientUnits="userSpaceOnUse" x1="256" x2="256" y1="450" y2="120"><stop offset="0" stop-color="#addcff"/><stop offset=".5028" stop-color="#eaf6ff"/><stop offset="1" stop-color="#eaf6ff"/></linearGradient><linearGradient id="SVGID_2_" gradientUnits="userSpaceOnUse" x1="256" x2="256" y1="512" y2="0"><stop offset="0" stop-color="#5558ff"/><stop offset="1" stop-color="#00c0ff"/></linearGradient><g><g><g><path d="m346 255c0-16.816-13.184-30-30-30s-30 13.184-30 30l-30-135h-60l-134.399 4.5 59.399 77.7v7.8h-46c-41.4 0-75 33.6-75 75 0 8.399 6.599 15 15 15h61c17.401 0 33.6-6 46.199-15.901 2.401 29.101 8.701 47.701 14.702 65.7 7.2 21.901 14.099 42.6 14.099 85.201 0 8.399 6.599 15 15 15s15-6.601 15-15c0-8.401 6.599-15 15-15h120c8.401 0 15 6.599 15 15 0 8.399 6.599 15 15 15s15-6.601 15-15c0-42.601 6.899-63.3 14.099-85.201 3.602-10.799 7.202-21.599 9.901-34.799l-69-30c16.816 0 30-13.184 30-30zm91-45h-61c-8.291 0-15 6.709-15 15 0 41.353 33.633 75 75 75h61c8.291 0 15-6.709 15-15 0-41.353-33.633-75-75-75z" fill="url(#SVGID_1_)"/></g></g><g><g><path d="m406 0c-8.291 0-15 6.709-15 15v60c0 24.814-20.186 45-45 45h-90v135c0 32.999 27.001 60 60 60h69c3.6-15.601 6-34.501 6-60v-52.808c53.552-18.593 90-69.27 90-127.192 0-41.353-33.633-75-75-75zm-90 270c-8.401 0-15-6.601-15-15 0-8.401 6.599-15 15-15s15 6.599 15 15c0 8.399-6.599 15-15 15zm0 120h-120c-24.814 0-45 20.186-45 45v32c0 24.814 20.186 45 45 45h120c24.814 0 45-20.186 45-45v-32c0-24.814-20.186-45-45-45zm-135-135c0 8.284 6.716 15 15 15s15-6.716 15-15-6.716-15-15-15-15 6.716-15 15zm-15-135c-24.901 0-45-20.101-45-45v-60c0-8.401-6.599-15-15-15-41.4 0-75 33.6-75 75 0 57.9 36.301 108.6 90 127.2v-7.2c0-44.595 36.089-75 75-75z" fill="url(#SVGID_2_)"/></g></g></g></svg>