<svg id="Capa_1" enable-background="new 0 0 512 512" height="512" viewBox="0 0 512 512" width="512" xmlns="http://www.w3.org/2000/svg" xmlns:xlink="http://www.w3.org/1999/xlink"><linearGradient id="SVGID_1_" gradientUnits="userSpaceOnUse" x1="256" x2="256" y1="512" y2="151.979"><stop offset="0" stop-color="#a93aff"/><stop offset="1" stop-color="#ff81ff"/></linearGradient><linearGradient id="SVGID_2_" gradientUnits="userSpaceOnUse" x1="256" x2="256" y1="512" y2="0"><stop offset="0" stop-color="#ffbef9"/><stop offset="1" stop-color="#fff1ff"/></linearGradient><g><g><g><path d="m121 437-45 75h73.2l61.8-45-45-75zm270 0-45-45-45 75 61.8 45h73.2zm-53.906-201.108-59.736-59.722c-5.508-5.83-13.301-9.17-21.358-9.17s-15.85 3.34-21.094 8.892l-59.648 59.648c-9.375 8.789-11.924 22.632-6.182 34.761l60.146 120.293c5.333 10.122 15.587 16.406 26.778 16.406s21.445-6.284 26.924-16.699l60.146-120.293c5.596-11.836 3.047-25.679-5.976-34.116zm-214.395-26.968 30.791 15.366c16.477 7.045 32.771-.668 39.434-13.975 7.236-14.487 1.23-32.49-13.623-40.239l-30-15c-14.235-7.118-32.272-1.713-40.225 13.608-7.236 14.488-1.23 32.491 13.623 40.24zm236.602 15 30.234-15.117c14.619-7.632 20.625-25.635 13.271-40.327-7.841-15.138-25.941-20.486-40.107-13.403l-30.234 15.117c-14.619 7.632-20.625 25.635-13.389 40.093 6.505 13.027 22.497 21.315 40.225 13.637z" fill="url(#SVGID_1_)"/></g></g><g><g><path d="m497 482c-24.9 0-46-20.101-46-45v-240c0-107.4-87.6-197-195-197s-195 89.6-195 197v240c0 24.899-21.1 45-46 45-8.401 0-15 6.599-15 15 0 8.399 6.599 15 15 15h61c41.4 0 75-33.6 75-75 0-8.401 6.599-15 15-15s15 6.599 15 15c0 29.399-12.001 56.1-31.8 75h46.8c24.6 0 46.199-11.7 60-30 13.801 18.3 35.4 30 60 30h46.8c-19.799-18.9-31.8-45.601-31.8-75 0-8.401 6.599-15 15-15s15 6.599 15 15c0 41.4 33.6 75 75 75h61c8.401 0 15-6.601 15-15 0-8.401-6.599-15-15-15zm-337.599-271.5-30-15c-7.5-3.9-10.501-12.902-6.901-20.102 3.9-7.5 12.9-10.499 20.1-6.899l30 15c7.5 3.9 10.501 12.9 6.901 20.1-3.325 6.647-11.307 10.669-20.1 6.901zm170.099 53.099-60 120c-2.7 5.101-7.8 8.401-13.5 8.401s-10.8-3.3-13.5-8.401l-60-120c-2.699-5.7-1.8-12.6 3.001-17.1l60-60c5.7-5.999 15.299-5.999 20.999 0l60 60c4.8 4.501 5.699 11.4 3 17.1zm53.099-68.099-30 15c-8.835 3.785-16.798-.301-20.1-6.901-3.6-7.2-.599-16.199 6.901-20.1l30-15c7.2-3.6 16.199-.601 20.1 6.899 3.6 7.201.599 16.202-6.901 20.102z" fill="url(#SVGID_2_)"/></g></g></g></svg>