<svg id="Capa_1" enable-background="new 0 0 512 512" height="512" viewBox="0 0 512 512" width="512" xmlns="http://www.w3.org/2000/svg" xmlns:xlink="http://www.w3.org/1999/xlink"><linearGradient id="SVGID_1_" gradientUnits="userSpaceOnUse" x1="256" x2="256" y1="496" y2="121"><stop offset="0" stop-color="#ffe59a"/><stop offset="1" stop-color="#ffffd5"/></linearGradient><linearGradient id="SVGID_2_" gradientUnits="userSpaceOnUse" x1="256" x2="256" y1="436" y2="16"><stop offset="0" stop-color="#fd5900"/><stop offset="1" stop-color="#ffde00"/></linearGradient><g><g><g><path d="m391 226v-15c0-13.2-3.6-26.4-10.201-37.5-2.699-4.801-7.5-7.5-12.9-7.5h-66.899c-16.5 0-30-13.5-30-30 0-8.401-6.599-15-15-15s-15 6.599-15 15c0 16.5-13.5 30-30 30h-66.899c-5.4 0-10.201 2.699-12.9 7.5-6.601 11.1-10.201 24.3-10.201 37.5v15l-61 45 63.401 28.2c2.399 13.2 6.299 23.699 10.499 34.499 8.101 21 17.1 45.3 17.1 102.301 0 32.999 27.001 60 60 60h90c32.999 0 60-27.001 60-60 0-57.001 9-81.301 17.1-102.301 4.2-10.8 8.101-21.299 10.499-34.499l63.401-28.2z" fill="url(#SVGID_1_)"/></g></g><g><g><path d="m121 226h-46c-41.4 0-75 33.6-75 75 0 8.399 6.599 15 15 15h61c17.999 0 34.501-6.301 47.401-16.8-1.5-8.1-2.401-17.1-2.401-28.2zm316 0h-46v45c0 11.1-.901 20.1-2.401 28.2 12.9 10.499 29.401 16.8 47.401 16.8h61c8.401 0 15-6.601 15-15 0-41.4-33.6-75-75-75zm-241 30c-8.284 0-15 6.716-15 15s6.716 15 15 15 15-6.716 15-15-6.716-15-15-15zm30 150c-8.284 0-15 6.716-15 15s6.716 15 15 15 15-6.716 15-15-6.716-15-15-15zm60 0c-8.284 0-15 6.716-15 15s6.716 15 15 15 15-6.716 15-15-6.716-15-15-15zm30-150c-8.284 0-15 6.716-15 15s6.716 15 15 15 15-6.716 15-15-6.716-15-15-15zm91-60c57.929 0 105-47.042 105-105 0-41.353-33.633-75-75-75-8.291 0-15 6.709-15 15v30c0 8.276-6.738 15-15 15h-106c-18.001 0-33.992 8.135-45 20.737-11.008-12.602-26.999-20.737-45-20.737h-106c-8.262 0-15-6.724-15-15v-30c0-8.291-6.709-15-15-15-41.367 0-75 33.647-75 75 0 57.925 47.042 105 105 105h106c18.001 0 33.992-8.135 45-20.737 11.008 12.602 26.999 20.737 45 20.737z" fill="url(#SVGID_2_)"/></g></g></g></svg>