<svg id="Capa_1" enable-background="new 0 0 512 512" height="512" viewBox="0 0 512 512" width="512" xmlns="http://www.w3.org/2000/svg" xmlns:xlink="http://www.w3.org/1999/xlink"><linearGradient id="SVGID_1_" gradientUnits="userSpaceOnUse" x1="256" x2="256" y1="482" y2="0"><stop offset="0" stop-color="#ffbef9"/><stop offset="1" stop-color="#fff1ff"/></linearGradient><linearGradient id="SVGID_2_" gradientUnits="userSpaceOnUse" x1="256" x2="256" y1="512" y2="1.162"><stop offset="0" stop-color="#a93aff"/><stop offset="1" stop-color="#ff81ff"/></linearGradient><g><g><g><path d="m256 105c-49.629 0-90 47.109-90 105s40.371 105 90 105 90-47.109 90-105-40.371-105-90-105zm60 317h-14.7l-48.679-30-41.921 30h-14.7c-8.401 0-15 6.599-15 15 0 8.399 6.599 15 15 15h45l15.631 30 14.369-30h45c8.401 0 15-6.601 15-15 0-8.401-6.599-15-15-15zm-142.148-378.875c-12.276-26.191-38.936-43.125-67.852-43.125h-30c-24.814 0-45 20.186-45 45s20.186 45 45 45h60c4.629 0 9.023-2.153 11.865-5.815 6.943-8.979 14.385-16.787 22.031-23.174 5.245-4.365 6.856-11.719 3.956-17.886zm262.148-43.125h-30c-28.916 0-55.576 16.934-67.852 43.125-2.9 6.167-1.289 13.521 3.955 17.886 7.646 6.387 15.088 14.194 22.031 23.174 2.843 3.662 7.237 5.815 11.866 5.815h60c24.814 0 45-20.186 45-45s-20.186-45-45-45z" fill="url(#SVGID_1_)"/></g></g><g><g><path d="m362.199 293.099c28.801-32.399 58.801-65.7 58.801-128.099 0-48.861-20.713-94.507-59.7-127.2-59.101-48.9-151.5-48.9-210.601.298-34.765 28.038-59.699 73.873-59.699 126.902 0 62.399 30 95.7 58.801 128.099 29.399 32.701 56.999 65.601 60.899 128.901h90.6c3.9-63.3 31.5-96.2 60.899-128.901zm-166.199-113.099c-8.401 0-15-6.601-15-15 0-8.401 6.599-15 15-15s15 6.599 15 15c0 8.399-6.599 15-15 15zm90 120h-60c-8.401 0-15-6.601-15-15 0-8.401 6.599-15 15-15h60c8.401 0 15 6.599 15 15 0 8.399-6.599 15-15 15zm0-60h-60c-8.401 0-15-6.601-15-15 0-8.401 6.599-15 15-15h60c8.401 0 15 6.599 15 15 0 8.399-6.599 15-15 15zm30-90c8.401 0 15 6.599 15 15 0 8.399-6.599 15-15 15s-15-6.601-15-15c0-8.401 6.599-15 15-15zm60 272c-8.401 0-15 6.599-15 15 0 8.399 6.599 15 15 15s15 6.599 15 15c0 8.399-6.599 15-15 15h-90c-8.401 0-15-6.601-15-15v-15h-30v15c0 24.899 20.099 45 45 45h90c24.901 0 45-20.101 45-45 0-24.9-20.099-45-45-45z" fill="url(#SVGID_2_)"/></g></g></g></svg>