<svg id="Capa_1" enable-background="new 0 0 512 512" height="512" viewBox="0 0 512 512" width="512" xmlns="http://www.w3.org/2000/svg" xmlns:xlink="http://www.w3.org/1999/xlink"><linearGradient id="SVGID_1_" gradientUnits="userSpaceOnUse" x1="256" x2="256" y1="466" y2="46"><stop offset="0" stop-color="#a93aff"/><stop offset="1" stop-color="#ff81ff"/></linearGradient><linearGradient id="SVGID_2_" gradientUnits="userSpaceOnUse" x1="256" x2="256" y1="376" y2="226"><stop offset="0" stop-color="#ffbef9"/><stop offset="1" stop-color="#fff1ff"/></linearGradient><g><g><g><path d="m391 46c-44.443 0-84.58 24.214-105.439 62.651-19.453-3.516-39.668-3.516-59.121 0-20.86-38.437-60.997-62.651-105.44-62.651-66.182 0-121 53.833-121 120 0 37.207 17.846 71.704 47.201 94.629 4.102 3.237 9.58 4.072 14.443 2.241 4.893-1.802 8.467-6.021 9.492-11.118l1.934-9.609c5.977 3.779 12.393 6.841 19.102 9.126-.791 6.547-1.172 13.154-1.172 19.731v30c0 65.859 47.49 121.274 111.855 132.393 10.137 19.834 30.44 32.607 53.145 32.607s43.008-12.773 53.145-32.607c64.365-11.119 111.855-66.534 111.855-132.393v-30c0-6.577-.381-13.184-1.172-19.731 6.709-2.285 13.125-5.347 19.102-9.126l1.934 9.609c1.025 5.098 4.6 9.316 9.492 11.118s10.371.967 14.443-2.241c29.355-22.925 47.201-57.422 47.201-94.629 0-66.167-54.818-120-121-120z" fill="url(#SVGID_1_)"/></g></g><g><g><path d="m346 226c-8.284 0-15 6.716-15 15s6.716 15 15 15 15-6.716 15-15-6.716-15-15-15zm-180 0c-8.284 0-15 6.716-15 15s6.716 15 15 15 15-6.716 15-15-6.716-15-15-15zm141.826 40.474c-5.976-23.833-27.275-40.474-51.826-40.474s-45.85 16.641-51.826 40.459l-10.811 43.154c-4.014 16.069-.469 32.769 9.727 45.82 10.195 13.067 25.547 20.567 42.129 20.567h21.563c16.582 0 31.934-7.5 42.129-20.566 10.195-13.052 13.74-29.751 9.727-45.82z" fill="url(#SVGID_2_)"/></g></g></g></svg>