<svg id="Capa_1" enable-background="new 0 0 510.012 510.012" height="512" viewBox="0 0 510.012 510.012" width="512" xmlns="http://www.w3.org/2000/svg" xmlns:xlink="http://www.w3.org/1999/xlink"><linearGradient id="SVGID_1_" gradientUnits="userSpaceOnUse" x1="255.006" x2="255.006" y1="510.012" y2="0"><stop offset="0" stop-color="#00b59c"/><stop offset="1" stop-color="#9cffac"/></linearGradient><linearGradient id="SVGID_2_" gradientUnits="userSpaceOnUse" x1="255.006" x2="255.006" y1="480.012" y2="240.012"><stop offset="0" stop-color="#c3ffe8"/><stop offset=".9973" stop-color="#f0fff4"/></linearGradient><g><g><g><path d="m441.1 347.517c-.371-.21-.758-.378-1.141-.553l10.048-3.153v-58.799c0-74.401-60.601-135-135-135h-12.299c5.999-17.401 22.798-30 42.299-30 41.4 0 75-33.6 75-75v-30c0-6-3.6-11.4-9.3-13.801-5.4-2.401-12-1.199-16.199 3.3-29.366 28.831-64.124 24.937-67.202 25.501-26.1 0-51.899 9-72.299 24.899-20.4-15.899-46.199-24.899-72.299-24.899-3-.55-37.307 3.85-67.202-25.501-4.199-4.499-10.8-5.7-16.199-3.3-5.7 2.401-9.3 7.8-9.3 13.801v30c0 41.4 33.6 75 75 75 19.501 0 36.301 12.599 42.299 30h-12.299c-74.399 0-135 60.599-135 135v58.799l10.04 3.151c-.381.176-.765.345-1.133.555-42.51 23.687-68.906 68.716-68.906 117.495v30c0 8.291 6.709 15 15 15 46.963 0 91.289-24.946 115.693-65.112 3.838-6.284 2.52-14.429-3.076-19.204-20.273-17.285-33.252-41.074-36.533-66.973-.271-2.085-.985-4.043-2.029-5.793l165.945 52.082 165.945-52.082c-1.043 1.75-1.757 3.708-2.029 5.793-3.281 25.898-16.26 49.688-36.533 66.973-5.596 4.775-6.914 12.92-3.076 19.204 24.404 40.166 68.73 65.112 115.693 65.112 8.291 0 15-6.709 15-15v-30c-.002-48.779-26.398-93.808-68.908-117.495z" fill="url(#SVGID_1_)"/></g></g><g><g><path d="m135.006 270.012c8.284 0 15-6.716 15-15s-6.716-15-15-15-15 6.716-15 15 6.716 15 15 15zm240 0c8.284 0 15-6.716 15-15s-6.716-15-15-15-15 6.716-15 15 6.716 15 15 15zm-120 15c-75 0-114.901 68.699-195 58.799.068 3.035-.137 11.018 1.199 18.6 8.964 66.327 64.349 117.601 133.801 117.601h120c69.505 0 125.161-52.081 133.5-117.001 1.664-8.323 1.384-14.125 1.5-19.2-80.099 9.9-120-58.799-195-58.799z" fill="url(#SVGID_2_)"/></g></g></g></svg>