<svg id="Capa_1" enable-background="new 0 0 512 512" height="512" viewBox="0 0 512 512" width="512" xmlns="http://www.w3.org/2000/svg" xmlns:xlink="http://www.w3.org/1999/xlink"><linearGradient id="SVGID_1_" gradientUnits="userSpaceOnUse" x1="256" x2="256" y1="376" y2="91"><stop offset="0" stop-color="#00b59c"/><stop offset="1" stop-color="#9cffac"/></linearGradient><linearGradient id="SVGID_2_" gradientUnits="userSpaceOnUse" x1="256" x2="256" y1="421" y2="151"><stop offset="0" stop-color="#c3ffe8"/><stop offset=".9973" stop-color="#f0fff4"/></linearGradient><g><g><g><path d="m448.6 184.6c1.5-6.3 2.4-12.301 2.4-18.6 0-41.4-33.6-75-75-75-26.1 0-49.799 13.5-63.6 35.1-38.101-6.599-74.7-6.599-112.8 0-13.801-21.6-37.5-35.1-63.6-35.1-41.4 0-75 33.6-75 75 0 6.299.901 12.299 2.4 18.6-39.9 30.899-63.4 67.5-63.4 101.4v.3l256 89.7 256-89.7v-.3c0-33.9-23.5-70.501-63.4-101.4z" fill="url(#SVGID_1_)"/></g></g><g><g><path d="m226 271c8.284 0 15-6.716 15-15s-6.716-15-15-15-15 6.716-15 15 6.716 15 15 15zm60 0c8.284 0 15-6.716 15-15s-6.716-15-15-15-15 6.716-15 15 6.716 15 15 15zm90-90c8.284 0 15-6.716 15-15s-6.716-15-15-15-15 6.716-15 15 6.716 15 15 15zm-240 0c8.284 0 15-6.716 15-15s-6.716-15-15-15-15 6.716-15 15 6.716 15 15 15zm120 135c-98.699 0-152.5-33.3-256-29.7.3 75.599 113.2 134.7 256 134.7s255.7-59.101 256-134.7c-103.5-3.6-157.599 29.7-256 29.7z" fill="url(#SVGID_2_)"/></g></g></g></svg>