<svg id="Capa_1" enable-background="new 0 0 511.972 511.972" height="512" viewBox="0 0 511.972 511.972" width="512" xmlns="http://www.w3.org/2000/svg" xmlns:xlink="http://www.w3.org/1999/xlink"><linearGradient id="SVGID_1_" gradientUnits="userSpaceOnUse" x1="255.986" x2="255.986" y1="511.972" y2="0"><stop offset="0" stop-color="#a93aff"/><stop offset="1" stop-color="#ff81ff"/></linearGradient><linearGradient id="SVGID_2_" gradientUnits="userSpaceOnUse" x1="255.986" x2="255.986" y1="451.972" y2="301.972"><stop offset="0" stop-color="#ffbef9"/><stop offset="1" stop-color="#fff1ff"/></linearGradient><g><g><g><path d="m399.746 165.287c24.727-67.866 33.691-149.194-5.068-163.315-45.378-16.659-90.977 76.402-107.667 122.271-7.236 19.863-12.861 39.888-16.494 58.784-9.727-1.406-19.336-1.406-29.063 0-3.633-18.896-9.258-38.921-16.494-58.77-16.597-45.633-62.132-138.871-107.665-122.285-38.76 14.121-29.795 95.449-5.068 163.315 10.195 28.037 23.057 54.111 36.826 74.81-34.6 40.239-58.066 94.937-58.066 136.875 0 74.443 74.033 135 165 135s165-60.557 165-135c0-41.938-23.467-96.636-58.066-136.875 13.768-20.698 26.629-46.772 36.825-74.81z" fill="url(#SVGID_1_)"/></g></g><g><g><path d="m195.986 301.972c-8.284 0-15 6.714-15 15 0 8.284 6.716 15 15 15s15-6.716 15-15c0-8.286-6.716-15-15-15zm120 0c-8.284 0-15 6.714-15 15 0 8.284 6.716 15 15 15s15-6.716 15-15c0-8.286-6.716-15-15-15zm-19.395 64.395c-5.859-5.859-15.352-5.859-21.211 0l-19.395 19.395-19.395-19.395c-5.859-5.859-15.352-5.859-21.211 0s-5.859 15.352 0 21.211l24.56 24.56c-2.122 5.713-7.52 9.834-13.954 9.834-8.291 0-15 6.709-15 15s6.709 15 15 15c11.514 0 22.031-4.351 30-11.484 7.969 7.134 18.486 11.484 30 11.484 8.291 0 15-6.709 15-15s-6.709-15-15-15c-6.434 0-11.829-4.122-13.953-9.836l24.558-24.558c5.861-5.86 5.861-15.352.001-21.211z" fill="url(#SVGID_2_)"/></g></g></g></svg>