<svg id="Capa_1" enable-background="new 0 0 512 512" height="512" viewBox="0 0 512 512" width="512" xmlns="http://www.w3.org/2000/svg" xmlns:xlink="http://www.w3.org/1999/xlink"><linearGradient id="SVGID_1_" gradientUnits="userSpaceOnUse" x1="256" x2="256" y1="162.029" y2="0"><stop offset="0" stop-color="#ffe59a"/><stop offset="1" stop-color="#ffffd5"/></linearGradient><linearGradient id="SVGID_2_" gradientUnits="userSpaceOnUse" x1="256" x2="256" y1="420" y2="90"><stop offset="0" stop-color="#fd5900"/><stop offset="1" stop-color="#ffde00"/></linearGradient><g><g><g><path d="m316 195c-16.816 0-30 13.184-30 30s13.184 30 30 30 30-13.184 30-30-13.184-30-30-30zm-90 30c0-16.816-13.184-30-30-30s-30 13.184-30 30 13.184 30 30 30 30-13.184 30-30zm30 38.699-70.499 40.8s16.3 88.885 14.835 92.649c-2.842 7.266-4.336 15.176-4.336 22.852 0 29.165 40.693 77.938 48.838 87.02 2.842 3.179 6.914 4.98 11.162 4.98s8.32-1.802 11.162-4.98c8.145-9.082 48.838-57.855 48.838-87.02 0-7.676-1.494-15.586-4.336-22.852-1.465-3.765 14.835-92.649 14.835-92.649zm-45-153.294v-20.405c0-49.629-40.371-90-90-90s-90 40.371-90 90v30c0 8.291 6.709 15 15 15s15-6.709 15-15c0-16.538 13.447-30 30-30s30 13.462 30 30v26.396c0 5.508 3.018 10.576 7.852 13.198 4.972 2.647 10.792 2.333 15.352-.645 37.737-24.074 44.504-30.666 56.133-34.189 6.327-1.918 10.663-7.748 10.663-14.355zm180-110.405c-49.629 0-90 40.371-90 90v20.405c0 6.606 4.336 12.437 10.664 14.355 11.626 3.523 18.279 10.042 56.133 34.189 4.569 2.983 10.39 3.286 15.352.645 4.834-2.622 7.852-7.69 7.852-13.198v-26.396c0-16.538 13.447-30 30-30s30 13.462 30 30c0 8.291 6.709 15 15 15s15-6.709 15-15v-30c-.001-49.629-40.372-90-90.001-90z" fill="url(#SVGID_1_)"/></g></g><g><g><path d="m505.101 212.398-161.802-105.298c-17.923-11.724-37.939-17.1-57.299-17.1h-60c-20.789 0-40.797 6.306-57.299 17.1l-161.802 105.298c-6.899 4.501-9 13.801-4.499 20.7 26.1 40.202 76.301 56.701 120.1 42.902 3.001 18.299 9.6 35.999 19.801 51.899l45.899 71.4c4.801 7.5 11.7 13.2 20.4 17.101 5.7 2.398 11.4 3.6 17.401 3.6h15v-68.701l-25.499-25.8c-6-5.7-6-15.3 0-21 5.7-5.999 15.298-5.999 20.999 0l19.501 19.2 19.501-19.2c5.7-5.999 15.298-5.999 20.999 0 6 5.7 6 15.3 0 21l-25.502 25.8v68.701h15c6 0 11.7-1.201 17.701-3.6 8.399-3.9 15.298-9.601 20.099-17.101l45.899-71.4c10.201-15.901 16.8-33.3 19.501-51.899 44.099 13.799 94.3-2.701 120.399-42.902 4.501-6.899 2.401-16.199-4.498-20.7zm-309.101 27.602c-8.401 0-15-6.601-15-15 0-8.401 6.599-15 15-15s15 6.599 15 15c0 8.399-6.599 15-15 15zm120 0c-8.401 0-15-6.601-15-15 0-8.401 6.599-15 15-15s15 6.599 15 15c0 8.399-6.599 15-15 15z" fill="url(#SVGID_2_)"/></g></g></g></svg>