<svg id="Capa_1" enable-background="new 0 0 512 512" height="512" viewBox="0 0 512 512" width="512" xmlns="http://www.w3.org/2000/svg" xmlns:xlink="http://www.w3.org/1999/xlink"><linearGradient id="SVGID_1_" gradientUnits="userSpaceOnUse" x1="256" x2="256" y1="512" y2="0"><stop offset="0" stop-color="#00b59c"/><stop offset="1" stop-color="#9cffac"/></linearGradient><linearGradient id="SVGID_2_" gradientUnits="userSpaceOnUse" x1="256" x2="256" y1="451" y2="121"><stop offset="0" stop-color="#c3ffe8"/><stop offset=".9973" stop-color="#f0fff4"/></linearGradient><g><g><g><path d="m256 0c-144.756 0-256 210.941-256 316 0 107.52 115.404 196 256 196s256-88.48 256-196c0-105.059-111.244-316-256-316z" fill="url(#SVGID_1_)"/></g></g><g><g><path d="m413.5 231.1-60-90c-8.401-12.6-22.5-20.1-37.5-20.1-14.7 0-25.8 4.499-35.7 8.699-16.8 6.899-31.8 6.899-48.6 0-9.901-4.2-21-8.699-35.7-8.699-15 0-29.099 7.5-37.5 20.1l-59.399 89.399c-5.4 7.201-8.101 16.201-8.101 25.501 0 24.898 20.099 45 45 45 8.401 0 15 6.599 15 15v30c0 57.9 47.1 105 105 105s105-47.1 105-105v-30c0-8.401 6.599-15 15-15 24.901 0 45-20.102 45-45 0-9.3-2.701-18.3-7.5-24.9zm-187.5 39.9c8.401 0 15 6.599 15 15 0 8.399-6.599 15-15 15s-15-6.601-15-15c0-8.401 6.599-15 15-15zm-30-30c-8.401 0-15-6.601-15-15 0-8.401 6.599-15 15-15s15 6.599 15 15c0 8.399-6.599 15-15 15zm90 120h-60c-8.401 0-15-6.601-15-15 0-8.401 6.599-15 15-15h60c8.401 0 15 6.599 15 15 0 8.399-6.599 15-15 15zm0-60c-8.401 0-15-6.601-15-15 0-8.401 6.599-15 15-15s15 6.599 15 15c0 8.399-6.599 15-15 15zm30-60c-8.401 0-15-6.601-15-15 0-8.401 6.599-15 15-15s15 6.599 15 15c0 8.399-6.599 15-15 15z" fill="url(#SVGID_2_)"/></g></g></g></svg>