<svg id="Capa_1" enable-background="new 0 0 512 512" height="512" viewBox="0 0 512 512" width="512" xmlns="http://www.w3.org/2000/svg" xmlns:xlink="http://www.w3.org/1999/xlink"><linearGradient id="SVGID_1_" gradientUnits="userSpaceOnUse" x1="256" x2="256" y1="512" y2="0"><stop offset="0" stop-color="#a93aff"/><stop offset="1" stop-color="#ff81ff"/></linearGradient><linearGradient id="SVGID_2_" gradientUnits="userSpaceOnUse" x1="256" x2="256" y1="211" y2="181"><stop offset="0" stop-color="#ffbef9"/><stop offset="1" stop-color="#fff1ff"/></linearGradient><g><g><g><path d="m512 75c0-41.353-33.633-75-75-75-25.518 0-49.779 13.891-63.461 34.428-35.215-21.914-76.377-34.428-117.539-34.428s-82.324 12.514-117.539 34.442c-13.682-20.537-37.973-34.442-63.461-34.442-41.367 0-75 33.647-75 75 0 29.209 17.904 56.137 43.158 68.441-27.627 55.884-43.158 125.464-43.158 202.559 0 90.981 75.033 166 166.088 166h179.912c90.967 0 166-75.019 166-166 0-77.095-15.531-146.675-43.158-202.559 25.254-12.304 43.158-39.247 43.158-68.441z" fill="url(#SVGID_1_)"/></g></g><g><g><path d="m301 241h-90c-49.501 0-90 40.499-90 90 0 49.499 40.499 90 90 90h30v-68.701l-25.499-25.8c-6-5.7-6-15.3 0-21 5.7-5.999 15.298-5.999 20.999 0l19.501 19.2 19.501-19.2c5.7-5.999 15.298-5.999 20.999 0 6 5.7 6 15.3 0 21l-25.501 25.8v68.701h30c49.501 0 90-40.501 90-90 0-49.501-40.499-90-90-90zm-105-30c8.284 0 15-6.716 15-15s-6.716-15-15-15-15 6.716-15 15 6.716 15 15 15zm120 0c8.284 0 15-6.716 15-15s-6.716-15-15-15-15 6.716-15 15 6.716 15 15 15z" fill="url(#SVGID_2_)"/></g></g></g></svg>