<svg id="Capa_1" enable-background="new 0 0 512 512" height="512" viewBox="0 0 512 512" width="512" xmlns="http://www.w3.org/2000/svg" xmlns:xlink="http://www.w3.org/1999/xlink"><linearGradient id="SVGID_1_" gradientUnits="userSpaceOnUse" x1="256" x2="256" y1="496.5" y2="15.5"><stop offset="0" stop-color="#fd5900"/><stop offset="1" stop-color="#ffde00"/></linearGradient><linearGradient id="SVGID_2_" gradientUnits="userSpaceOnUse" x1="256" x2="256" y1="436.5" y2="106.459"><stop offset="0" stop-color="#ffe59a"/><stop offset="1" stop-color="#ffffd5"/></linearGradient><g><g><g><path d="m512 90.5c0-41.353-33.633-75-75-75-23.174 0-45.971 11.928-60.033 29.77-34.922-18.868-76.406-28.77-120.967-28.77s-86.045 9.902-120.967 28.77c-14.062-17.842-36.859-29.77-60.033-29.77-41.367 0-75 33.647-75 75 0 28.213 16.908 54.643 41.107 67.401-6.709 21.299-10.107 44.297-10.107 68.599 0 127.456 96.211 270 225 270s225-142.544 225-270c0-24.302-3.398-47.3-10.107-68.599 24.199-12.758 41.107-39.188 41.107-67.401z" fill="url(#SVGID_1_)"/></g></g><g><g><path d="m419.2 191.398c-7.8-40.499-39.901-73.498-80.4-82.5-29.399-6.298-58.8-.298-82.8 16.802-24-17.1-53.401-23.101-82.8-16.802-40.499 9.002-72.599 42.001-80.4 82.5-8.399 44.401 11.7 87.902 50.7 110.7 4.501 2.701 7.5 7.5 7.5 12.902v16.5c0 57.9 47.1 105 105 105s105-47.1 105-105v-16.5c0-5.402 2.999-10.201 7.5-12.902 39-22.798 59.099-66.298 50.7-110.7zm-193.2 65.102c8.401 0 15 6.599 15 15 0 8.399-6.599 15-15 15s-15-6.601-15-15c0-8.401 6.599-15 15-15zm-30-30c-8.401 0-15-6.601-15-15 0-8.401 6.599-15 15-15s15 6.599 15 15c0 8.399-6.599 15-15 15zm90 120h-60c-8.401 0-15-6.601-15-15 0-8.401 6.599-15 15-15h60c8.401 0 15 6.599 15 15 0 8.399-6.599 15-15 15zm0-60c-8.401 0-15-6.601-15-15 0-8.401 6.599-15 15-15s15 6.599 15 15c0 8.399-6.599 15-15 15zm30-60c-8.401 0-15-6.601-15-15 0-8.401 6.599-15 15-15s15 6.599 15 15c0 8.399-6.599 15-15 15z" fill="url(#SVGID_2_)"/></g></g></g></svg>