<svg id="Capa_1" enable-background="new 0 0 512 512" height="512" viewBox="0 0 512 512" width="512" xmlns="http://www.w3.org/2000/svg" xmlns:xlink="http://www.w3.org/1999/xlink"><linearGradient id="SVGID_1_" gradientUnits="userSpaceOnUse" x1="256" x2="256" y1="422" y2="0"><stop offset="0" stop-color="#ffc2cc"/><stop offset="1" stop-color="#fff2f4"/></linearGradient><linearGradient id="SVGID_2_" gradientUnits="userSpaceOnUse" x1="256" x2="256" y1="512" y2="152"><stop offset="0" stop-color="#fd3a84"/><stop offset="1" stop-color="#ffa68d"/></linearGradient><g><g><g><path d="m448.275 277.259-30.908-144.873c-16.025-75.542-83.906-132.386-161.367-132.386s-145.342 56.844-161.367 132.371l-30.908 144.976c-1.846 8.818-2.725 16.875-2.725 24.653 0 45.337 26.191 87.803 71.807 116.499 3.955 2.476 8.848 2.944 13.184 1.377 4.365-1.611 7.734-5.142 9.111-9.58 3.779-11.997 9.902-22.397 16.406-33.398 3.15-5.348 6.413-10.893 9.492-16.808v61.91h150v-61.911c3.079 5.916 6.342 11.46 9.492 16.808 6.504 11.001 12.627 21.401 16.406 33.398 1.377 4.438 4.746 7.969 9.111 9.58 4.559 1.651 9.359 1.019 13.184-1.377 45.616-28.695 71.807-71.161 71.807-116.498 0-7.778-.879-15.835-2.725-24.741zm-252.275 24.741c0-33.091 26.924-60 60-60s60 26.909 60 60z" fill="url(#SVGID_1_)"/></g></g><g><g><path d="m385.6 401.3c-4.801-15.3-12.301-27.6-19.2-39.6-11.1-18.6-20.4-34.5-20.4-59.7 0-49.501-40.499-90-90-90s-90 40.499-90 90c0 25.199-9.3 41.1-20.4 59.7-6.899 12-14.399 24.3-19.2 39.6-3.6 11.4-5.4 22.8-5.4 35.7 0 41.999 59.399 75 135 75s135-33.001 135-75c0-12.9-1.8-24.3-5.4-35.7zm-144.6-24.3c0 8.399-6.599 15-15 15s-15-6.601-15-15v-30c0-8.401 6.599-15 15-15s15 6.599 15 15zm60 0c0 8.399-6.599 15-15 15s-15-6.601-15-15v-30c0-8.401 6.599-15 15-15s15 6.599 15 15zm-105-195c8.284 0 15-6.716 15-15s-6.716-15-15-15-15 6.716-15 15 6.716 15 15 15zm120 0c8.284 0 15-6.716 15-15s-6.716-15-15-15-15 6.716-15 15 6.716 15 15 15z" fill="url(#SVGID_2_)"/></g></g></g></svg>