<svg id="Capa_1" enable-background="new 0 0 512 512" height="512" viewBox="0 0 512 512" width="512" xmlns="http://www.w3.org/2000/svg" xmlns:xlink="http://www.w3.org/1999/xlink"><linearGradient id="SVGID_1_" gradientUnits="userSpaceOnUse" x1="256" x2="256" y1="512" y2="0"><stop offset="0" stop-color="#5558ff"/><stop offset="1" stop-color="#00c0ff"/></linearGradient><linearGradient id="SVGID_2_" gradientUnits="userSpaceOnUse" x1="256" x2="256" y1="330" y2="60"><stop offset="0" stop-color="#addcff"/><stop offset=".5028" stop-color="#eaf6ff"/><stop offset="1" stop-color="#eaf6ff"/></linearGradient><g id="Ostrich_2_"><g><g><path d="m415.258 103.477c3.779-9.009 5.742-18.633 5.742-28.477 0-41.353-33.633-75-75-75h-180c-41.367 0-75 33.647-75 75 0 9.844 1.963 19.468 5.742 28.477-39.961 20.2-65.742 61.054-65.742 106.523 0 66.167 53.818 120 120 120v167c0 8.291 6.709 15 15 15h180c8.291 0 15-6.709 15-15v-167c66.182 0 120-53.833 120-120 0-45.469-25.781-86.323-65.742-106.523z" fill="url(#SVGID_1_)"/></g></g><g><g><path d="m166 90c8.284 0 15-6.716 15-15s-6.716-15-15-15-15 6.716-15 15 6.716 15 15 15zm180 0c8.284 0 15-6.716 15-15s-6.716-15-15-15-15 6.716-15 15 6.716 15 15 15zm0 60h-30.322c-14.092-18.691-36.24-30-59.678-30s-45.586 11.309-59.678 30c0 0-30.645 0-30.732 0-24.61.22-44.59 20.317-44.59 45 0 24.814 20.186 45 45 45 41.367 0 75 33.647 75 75 0 8.291 6.709 15 15 15s15-6.709 15-15c0-41.353 33.633-75 75-75 24.814 0 45-20.186 45-45s-20.186-45-45-45z" fill="url(#SVGID_2_)"/></g></g></g></svg>