<svg id="Capa_1" enable-background="new 0 0 512 512" height="512" viewBox="0 0 512 512" width="512" xmlns="http://www.w3.org/2000/svg" xmlns:xlink="http://www.w3.org/1999/xlink"><linearGradient id="SVGID_1_" gradientUnits="userSpaceOnUse" x1="256" x2="256" y1="466" y2="16"><stop offset="0" stop-color="#fd3a84"/><stop offset="1" stop-color="#ffa68d"/></linearGradient><linearGradient id="SVGID_2_" gradientUnits="userSpaceOnUse" x1="256" x2="256" y1="496" y2="16"><stop offset="0" stop-color="#ffc2cc"/><stop offset="1" stop-color="#fff2f4"/></linearGradient><g><g><g><path d="m256 61c-99.258 0-180 80.742-180 180 0 72.471 43.134 134.908 105 163.42v61.58h150v-61.58c61.866-28.511 105-90.948 105-163.42 0-99.258-80.742-180-180-180zm-176.752 95.537c13.945-29.253 35.098-54.536 61.143-73.125 5.42-3.867 7.646-10.825 5.479-17.124-10.401-30.073-38.878-50.288-70.87-50.288-41.367 0-75 33.647-75 75 0 36.885 27.334 68.672 63.545 73.931 6.171.987 12.777-2.269 15.703-8.394zm357.752-140.537c-31.992 0-60.469 20.215-70.869 50.288-2.168 6.299.059 13.257 5.479 17.124 26.045 18.589 47.197 43.872 61.143 73.125 2.946 6.184 9.58 9.373 15.703 8.394 36.21-5.259 63.544-37.046 63.544-73.931 0-41.353-33.633-75-75-75z" fill="url(#SVGID_1_)"/></g></g><g><g><path d="m256 16c-124.677 0-225 101.171-225 225 0 80.4 43.2 154.799 112.8 195 25.972 38.963 68.975 60 112.2 60 45.3 0 87.001-22.2 111.899-60 69.901-40.201 113.101-114.6 113.101-195 0-124.219-100.791-225-225-225zm60 90c8.401 0 15 6.599 15 15 0 8.399-6.599 15-15 15s-15-6.601-15-15c0-8.401 6.599-15 15-15zm-60 60c8.401 0 15 6.599 15 15 0 8.399-6.599 15-15 15s-15-6.601-15-15c0-8.401 6.599-15 15-15zm-60-60c8.401 0 15 6.599 15 15 0 8.399-6.599 15-15 15s-15-6.601-15-15c0-8.401 6.599-15 15-15zm-90 150c-8.401 0-15-6.601-15-15 0-8.401 6.599-15 15-15s15 6.599 15 15c0 8.399-6.599 15-15 15zm30 60c-8.401 0-15-6.601-15-15 0-8.401 6.599-15 15-15s15 6.599 15 15c0 8.399-6.599 15-15 15zm53.401-61.5-30-15c-7.5-3.9-10.501-12.902-6.901-20.101 3.9-7.5 12.9-10.499 20.1-6.899l30 15c7.5 3.9 10.501 12.9 6.901 20.099-3.325 6.647-11.307 10.669-20.1 6.901zm107.098 155.999c6 5.7 6 15.3 0 21-5.396 6-15.6 6.002-20.999 0-10.802-10.499-28.2-10.499-39.001 0-5.7 6-15.299 6-20.999 0-6-5.7-6-15.3 0-21 7.2-7.5 16.199-11.999 25.499-14.7v-28.5l-25.499-25.8c-6-5.7-6-15.3 0-21 5.7-5.999 15.299-5.999 20.999 0l19.501 19.2 19.501-19.2c5.7-5.999 15.299-5.999 20.999 0 6 5.7 6 15.3 0 21l-25.5 25.8v28.5c9.3 2.701 18.3 7.2 25.499 14.7zm56.1-170.999-30 15c-8.835 3.786-16.798-.301-20.1-6.901-3.6-7.2-.599-16.199 6.901-20.099l30-15c7.2-3.6 16.199-.601 20.1 6.899 3.6 7.2.599 16.201-6.901 20.101zm23.401 76.5c-8.401 0-15-6.601-15-15 0-8.401 6.599-15 15-15s15 6.599 15 15c0 8.399-6.599 15-15 15zm30-60c-8.401 0-15-6.601-15-15 0-8.401 6.599-15 15-15s15 6.599 15 15c0 8.399-6.599 15-15 15z" fill="url(#SVGID_2_)"/></g></g></g></svg>