<svg id="Capa_1" enable-background="new 0 0 512 512" height="512" viewBox="0 0 512 512" width="512" xmlns="http://www.w3.org/2000/svg" xmlns:xlink="http://www.w3.org/1999/xlink"><linearGradient id="SVGID_1_" gradientUnits="userSpaceOnUse" x1="256" x2="256" y1="467" y2="92"><stop offset="0" stop-color="#ffc2cc"/><stop offset="1" stop-color="#fff2f4"/></linearGradient><linearGradient id="SVGID_2_" gradientUnits="userSpaceOnUse" x1="256" x2="256" y1="512" y2="0"><stop offset="0" stop-color="#fd3a84"/><stop offset="1" stop-color="#ffa68d"/></linearGradient><g><g><g><path d="m386.201 140.9c-10.501-28.5-38.101-48.9-70.201-48.9h-120c-32.1 0-59.7 20.4-70.201 48.9l-34.799 26.1 30 45v30l30 15-29.7 15c.3 11.1 1.199 21 2.699 30l57.001 15-51.599 15c2.098 9.3 4.799 17.999 7.2 26.7 7.5 25.8 14.399 50.4 14.399 93.3 0 8.399 6.599 15 15 15s15-6.601 15-15c0-16.5 13.5-30 30-30h90c16.5 0 30 13.5 30 30 0 8.399 6.599 15 15 15s15-6.601 15-15c0-42.9 6.899-67.5 14.399-93.3 2.4-8.701 5.101-17.401 7.2-26.7l-51.599-15 57.001-15c1.5-9 2.399-18.9 2.699-30l-23.7-15 24-15v-30l30-45z" fill="url(#SVGID_1_)"/></g></g><g><g><path d="m497 122h-61c-18.6 0-36.301 6.899-49.799 18.9 3.3 8.099 4.799 16.8 4.799 26.1v45h46c20.1 0 39-7.8 52.8-21.901 14.4-14.099 22.2-32.699 22.2-53.099 0-8.401-6.599-15-15-15zm-376 45c0-9.3 1.5-18.001 4.799-26.1-13.799-12.301-31.199-18.9-49.799-18.9h-61c-8.401 0-15 6.599-15 15 0 20.4 7.8 39 21.899 52.8 14.101 14.4 33.002 22.2 53.101 22.2h46zm75 45c8.284 0 15-6.716 15-15s-6.716-15-15-15-15 6.716-15 15 6.716 15 15 15zm120 0c8.284 0 15-6.716 15-15s-6.716-15-15-15-15 6.716-15 15 6.716 15 15 15zm-105 105c0-8.401-6.599-15-15-15h-72.001c1.201 11.1 3.302 20.7 5.402 30h66.599c8.401 0 15-6.601 15-15zm0-60c0-8.401-6.599-15-15-15h-75c0 17.67-.089 23.774.3 30h74.7c8.401 0 15-6.601 15-15zm111-15c-8.101 0-15 6.599-15 15 0 8.399 6.899 15 15 15h68.7c.392-6.259.3-12.71.3-30zm-21 75c0 8.399 6.599 15 15 15h66.599c2.1-9.3 4.2-18.9 5.402-30h-72.001c-8.401 0-15 6.599-15 15zm0 75h-30v-45c0-8.291-6.709-15-15-15s-15 6.709-15 15v45h-30c-33.076 0-60 26.909-60 60s26.924 60 60 60h90c33.076 0 60-26.909 60-60s-26.924-60-60-60zm-60-240h30c8.401 0 15-6.601 15-15v-122c0-8.401-6.599-15-15-15h-30c-8.401 0-15 6.599-15 15v122c0 8.399 6.599 15 15 15z" fill="url(#SVGID_2_)"/></g></g></g></svg>